<?xml version="1.0" encoding="UTF-8" standalone="no"?>
<svg
   width="591.327mm"
   height="338.997mm"
   viewBox="0 0 591.327 338.997"
   version="1.1"
   preserveAspectRatio="xMidYMid meet"
   id="svg1"
   sodipodi:docname="BOX_seged.svg"
   inkscape:version="1.4 (86a8ad7, 2024-10-11)"
   xmlns:inkscape="http://www.inkscape.org/namespaces/inkscape"
   xmlns:sodipodi="http://sodipodi.sourceforge.net/DTD/sodipodi-0.dtd"
   xmlns="http://www.w3.org/2000/svg"
   xmlns:svg="http://www.w3.org/2000/svg">
  <defs
     id="defs1" />
  <sodipodi:namedview
     id="namedview1"
     pagecolor="#ffffff"
     bordercolor="#000000"
     borderopacity="0.25"
     inkscape:showpageshadow="2"
     inkscape:pageopacity="0.0"
     inkscape:pagecheckerboard="0"
     inkscape:deskcolor="#d1d1d1"
     inkscape:document-units="mm"
     showgrid="true"
     showguides="false"
     inkscape:zoom="1.1060715"
     inkscape:cx="457.47493"
     inkscape:cy="505.84431"
     inkscape:window-width="1920"
     inkscape:window-height="1009"
     inkscape:window-x="-8"
     inkscape:window-y="-8"
     inkscape:window-maximized="1"
     inkscape:current-layer="svg1">
    <inkscape:grid
       id="grid1"
       units="mm"
       originx="0"
       originy="0"
       spacingx="0.99999997"
       spacingy="0.99999998"
       empcolor="#0099e5"
       empopacity="0.30196078"
       color="#0099e5"
       opacity="0.14901961"
       empspacing="5"
       enabled="true"
       visible="true"
       dotted="false" />
  </sodipodi:namedview>
  <path
     d="m 211.98734,91.001303 h -9.5 v -3 h -6 v 3 h -6 v -3 h -6 v 3 h -6 v -3 h -6 v 3 h -6 v -3 h -6 v 3 h -6 v -3 h -6 v 3 h -6 v -3 h -6 v 3 h -6 -3.5 -9.5 v -3 h -6 v 3 h -6 v -3 h -6.000004 v 3 h -5.99999 v -3 h -6 v 3 h -6 v -3 h -6 v 3 h -6 v -3 h -6 v 3 h -6 v -3 h -6 v 3 h -6 -3.5 l -2.498,0.078 -2.489,0.234 -2.469,0.389 -2.44,0.543 -2.401,0.693 -2.354,0.843 -2.296,0.987 -2.23,1.13 -2.155,1.266 -2.072,1.397997 -1.98,1.526 -1.881,1.645 -1.775,1.761 -1.661001,1.867 -1.5419995,1.968 -1.415,2.06 -1.285,2.144 -1.147,2.221 -1.007,2.288 -0.862,2.346 -0.714,2.396 -0.562,2.435 -0.41,2.466 -0.254,2.487 -0.099,2.497 0.057,2.499 0.213,2.491 0.369,2.472 0.522,2.444 0.674,2.407 0.823,2.361 0.968,2.304 1.111,2.239 1.249,2.166 1.381,2.083 1.5079995,1.993 1.631001,1.895 1.745,1.789 1.854,1.677 1.954,1.558 2.049,1.432 2.134,1.302 2.21,1.166 2.28,1.026 2.339,0.881 2.39,0.734 2.43,0.583 2.463,0.43 2.484,0.275 2.497,0.119 0.663,0.006 h 10 v 3 h 6 v -3 h 6 v 3 h 6 v -3 h 6 v 3 h 6 v -3 h 6 v 3 h 6 v -3 h 5.99999 v 3 h 6.000004 v -3 h 6 v 3 h 6 v -3 h 6 v 3 h 6 v -3 h 6 v 3 h 6 v -3 h 6 v 3 h 6 v -3 h 6 v 3 h 6 v -3 h 6 v 3 h 6 v -3 h 6 v 3 h 6 v -3 h 6 v 3 h 6 v -3 h 6 4 l 2.499,-0.078 2.488,-0.234 2.47,-0.389 2.44,-0.543 2.401,-0.693 2.353,-0.843 2.296,-0.987 2.23,-1.13 2.155,-1.266 2.072,-1.398 1.981,-1.526 1.881,-1.645 1.775,-1.761 1.661,-1.867 1.542,-1.968 1.415,-2.06 1.284,-2.144 1.148,-2.221 1.007,-2.288 0.862,-2.346 0.713,-2.396 0.563,-2.435 0.41,-2.466 0.254,-2.487 0.099,-2.497 -0.057,-2.499 -0.214,-2.491 -0.368,-2.472 -0.522,-2.444 -0.674,-2.407 -0.823,-2.361 -0.969,-2.304 -1.11,-2.239 -1.249,-2.166 -1.381,-2.083 -1.509,-1.993 -1.63,-1.895 -1.745,-1.789 -1.854,-1.677 -1.955,-1.558 -2.048,-1.431999 -2.134,-1.301998 -2.211,-1.166 -2.279,-1.026 -2.339,-0.881 -2.39,-0.734 -2.43,-0.583 -2.463,-0.43 -2.484,-0.275 -2.497,-0.119 z"
     id="TOP_outsideCutPath"
     stroke="#FF0000"
     stroke-width="0.1"
     style="font-size:12px;fill:none;fill-rule:evenodd;stroke:#ff0000;stroke-width:1.045;stroke-linecap:round;stroke-dasharray:none"
     vector-effect="non-scaling-stroke" />
  <path
     d="m 549.08441,91.422827 h -10 v -3 h -6 v 3 h -6 v -3 h -6 v 3 h -6 v -3 h -6 v 3 h -6 v -3 h -6 v 3 h -6 v -3 h -6 v 3 h -6 v -3 h -6 v 3 h -6 v -3 h -6 v 3 h -6 v -3 h -6 v 3 h -6 v -3 h -6 v 3 h -6 v -3 h -6 v 3 h -6 v -3 h -6 v 3 h -6 v -3 h -6 v 3 h -6 v -3 h -6 v 3 h -6 -4 l -2.498,0.078 -2.489,0.234 -2.469,0.389 -2.44,0.543 -2.401,0.693 -2.354,0.843 -2.296,0.987 -2.23,1.13 -2.155,1.266 -2.072,1.398 -1.98,1.526003 -1.881,1.645 -1.775,1.761 -1.661,1.867 -1.542,1.968 -1.415,2.06 -1.285,2.144 -1.147,2.221 -1.007,2.288 -0.862,2.346 -0.714,2.396 -0.562,2.435 -0.41,2.466 -0.254,2.487 -0.099,2.497 0.057,2.499 0.213,2.491 0.369,2.472 0.522,2.444 0.674,2.407 0.823,2.361 0.968,2.304 1.111,2.239 1.249,2.166 1.381,2.083 1.508,1.993 1.631,1.895 1.745,1.789 1.854,1.677 1.954,1.558 2.049,1.432 2.134,1.302 2.21,1.166 2.28,1.026 2.339,0.881 2.39,0.734 2.43,0.583 2.463,0.43 2.484,0.275 2.497,0.119 0.663,0.006 h 9.5 v 3 h 6 v -3 h 6 v 3 h 6 v -3 h 6 v 3 h 6 v -3 h 6 v 3 h 6 v -3 h 6 v 3 h 6 v -3 h 6 v 3 h 6 v -3 h 6 3.5 9.5 v 3 h 6 v -3 h 6 v 3 h 6 v -3 h 6 v 3 h 6 v -3 h 6 v 3 h 6 v -3 h 6 v 3 h 6 v -3 h 6 v 3 h 6 v -3 h 6 3.5 l 2.499,-0.078 2.488,-0.234 2.47,-0.389 2.44,-0.543 2.401,-0.693 2.353,-0.843 2.296,-0.987 2.23,-1.13 2.155,-1.266 2.072,-1.398 1.981,-1.526 1.881,-1.645 1.775,-1.761 1.661,-1.867 1.542,-1.968 1.415,-2.06 1.284,-2.144 1.148,-2.221 1.007,-2.288 0.862,-2.346 0.713,-2.396 0.563,-2.435 0.41,-2.466 0.254,-2.487 0.099,-2.497 -0.057,-2.499 -0.214,-2.491 -0.368,-2.472 -0.522,-2.444 -0.674,-2.407 -0.823,-2.361 -0.969,-2.304 -1.11,-2.239 -1.249,-2.166 -1.381,-2.083 -1.509,-1.993 -1.63,-1.895 -1.745,-1.789 -1.854,-1.677 -1.955,-1.558003 -2.048,-1.432 -2.134,-1.302 -2.211,-1.166 -2.279,-1.026 -2.339,-0.881 -2.39,-0.734 -2.43,-0.583 -2.463,-0.43 -2.484,-0.275 -2.497,-0.119 z"
     id="BOTTOM_outsideCutPath"
     stroke="#FF0000"
     stroke-width="0.1"
     style="font-size:12px;fill:none;fill-rule:evenodd;stroke:#ff0000;stroke-width:1.045;stroke-linecap:round;stroke-dasharray:none"
     vector-effect="non-scaling-stroke" />
  <path
     d="M 85,86 V 64.5 M 85,53.75 V 32.25 M 85,21.5 V 0 m 3.067,86 v -5.375 m 0,-10.75 v -21.5 m 0,-10.75 v -21.5 m 0,-10.75 V 0 m 3.066,86 V 64.5 m 0,-10.75 v -21.5 m 0,-10.75 V 0 M 94.2,86 v -5.375 m 0,-10.75 v -21.5 m 0,-10.75 v -21.5 m 0,-10.75 V 0 m 3.066,86 V 64.5 m 0,-10.75 v -21.5 m 0,-10.75 V 0 m 3.067,86 v -5.375 m 0,-10.75 v -21.5 m 0,-10.75 v -21.5 m 0,-10.75 V 0 M 103.4,86 V 64.5 m 0,-10.75 v -21.5 m 0,-10.75 V 0 m 3.066,86 v -5.375 m 0,-10.75 v -21.5 m 0,-10.75 v -21.5 m 0,-10.75 V 0 m 3.067,86 V 64.5 m 0,-10.75 v -21.5 m 0,-10.75 V 0 m 3.066,86 v -5.375 m 0,-10.75 v -21.5 m 0,-10.75 v -21.5 m 0,-10.75 V 0 m 3.067,86 V 64.5 m 0,-10.75 v -21.5 m 0,-10.75 V 0 m 3.067,86 v -5.375 m 0,-10.75 v -21.5 m 0,-10.75 v -21.5 m 0,-10.75 V 0 m 3.066,86 V 64.5 m 0,-10.75 v -21.5 m 0,-10.75 V 0 m 3.067,86 v -5.375 m 0,-10.75 v -21.5 m 0,-10.75 v -21.5 m 0,-10.75 V 0 m 3.066,86 V 64.5 m 0,-10.75 v -21.5 m 0,-10.75 V 0 m 3.067,86 v -5.375 m 0,-10.75 v -21.5 m 0,-10.75 v -21.5 m 0,-10.75 V 0 m 3.066,86 V 64.5 m 0,-10.75 v -21.5 m 0,-10.75 V 0 m 3.067,86 v -5.375 m 0,-10.75 v -21.5 m 0,-10.75 v -21.5 m 0,-10.75 V 0 m 3.067,86 V 64.5 m 0,-10.75 v -21.5 m 0,-10.75 V 0 m 3.066,86 v -5.375 m 0,-10.75 v -21.5 m 0,-10.75 v -21.5 m 0,-10.75 V 0 m 3.067,86 V 64.5 m 0,-10.75 v -21.5 m 0,-10.75 V 0 m 3.066,86 v -5.375 m 0,-10.75 v -21.5 m 0,-10.75 v -21.5 m 0,-10.75 V 0 m 3.067,86 V 64.5 m 0,-10.75 v -21.5 m 0,-10.75 V 0 m 3.067,86 v -5.375 m 0,-10.75 v -21.5 m 0,-10.75 v -21.5 m 0,-10.75 V 0 m 3.066,86 V 64.5 m 0,-10.75 v -21.5 m 0,-10.75 V 0 m 3.067,86 v -5.375 m 0,-10.75 v -21.5 m 0,-10.75 v -21.5 m 0,-10.75 V 0 m 3.066,86 V 64.5 m 0,-10.75 v -21.5 m 0,-10.75 V 0 m 3.067,86 v -5.375 m 0,-10.75 v -21.5 m 0,-10.75 v -21.5 m 0,-10.75 V 0 m 3.067,86 V 64.5 m 0,-10.75 v -21.5 m 0,-10.75 V 0 m 3.066,86 v -5.375 m 0,-10.75 v -21.5 m 0,-10.75 v -21.5 m 0,-10.75 V 0 m 3.067,86 V 64.5 m 0,-10.75 v -21.5 m 0,-10.75 V 0 m 3.066,86 v -5.375 m 0,-10.75 v -21.5 m 0,-10.75 v -21.5 m 0,-10.75 V 0 m 3.067,86 V 64.5 m 0,-10.75 v -21.5 m 0,-10.75 V 0 m 3.067,86 v -5.375 m 0,-10.75 v -21.5 m 0,-10.75 v -21.5 m 0,-10.75 V 0 m 3.066,86 V 64.5 m 0,-10.75 v -21.5 m 0,-10.75 V 0 m 3.067,86 v -5.375 m 0,-10.75 v -21.5 m 0,-10.75 v -21.5 m 0,-10.75 V 0 m 3.066,86 V 64.5 m 0,-10.75 v -21.5 m 0,-10.75 V 0 m 3.067,86 v -5.375 m 0,-10.75 v -21.5 m 0,-10.75 v -21.5 m 0,-10.75 V 0 m 3.067,86 V 64.5 m 0,-10.75 v -21.5 m 0,-10.75 V 0 m 3.066,86 v -5.375 m 0,-10.75 v -21.5 m 0,-10.75 v -21.5 m 0,-10.75 V 0 m 3.067,86 V 64.5 m 0,-10.75 v -21.5 m 0,-10.75 V 0 m 173,86 V 64.5 m 0,-10.75 v -21.5 m 0,-10.75 V 0 m 3.066,86 v -5.375 m 0,-10.75 v -21.5 m 0,-10.75 v -21.5 m 0,-10.75 V 0 m 3.067,86 V 64.5 m 0,-10.75 v -21.5 m 0,-10.75 V 0 m 3.066,86 v -5.375 m 0,-10.75 v -21.5 m 0,-10.75 v -21.5 m 0,-10.75 V 0 m 3.067,86 V 64.5 m 0,-10.75 v -21.5 m 0,-10.75 V 0 m 3.067,86 v -5.375 m 0,-10.75 v -21.5 m 0,-10.75 v -21.5 m 0,-10.75 V 0 m 3.066,86 V 64.5 m 0,-10.75 v -21.5 m 0,-10.75 V 0 m 3.067,86 v -5.375 m 0,-10.75 v -21.5 m 0,-10.75 v -21.5 m 0,-10.75 V 0 m 3.066,86 V 64.5 m 0,-10.75 v -21.5 m 0,-10.75 V 0 m 3.067,86 v -5.375 m 0,-10.75 v -21.5 m 0,-10.75 v -21.5 m 0,-10.75 V 0 m 3.067,86 V 64.5 m 0,-10.75 v -21.5 m 0,-10.75 V 0 m 3.066,86 v -5.375 m 0,-10.75 v -21.5 m 0,-10.75 v -21.5 m 0,-10.75 V 0 m 3.067,86 V 64.5 m 0,-10.75 v -21.5 m 0,-10.75 V 0 m 3.066,86 v -5.375 m 0,-10.75 v -21.5 m 0,-10.75 v -21.5 m 0,-10.75 V 0 m 3.067,86 V 64.5 m 0,-10.75 v -21.5 m 0,-10.75 V 0 m 3.067,86 v -5.375 m 0,-10.75 v -21.5 m 0,-10.75 v -21.5 m 0,-10.75 V 0 m 3.066,86 V 64.5 m 0,-10.75 v -21.5 m 0,-10.75 V 0 m 3.067,86 v -5.375 m 0,-10.75 v -21.5 m 0,-10.75 v -21.5 m 0,-10.75 V 0 m 3.066,86 V 64.5 m 0,-10.75 v -21.5 m 0,-10.75 V 0 m 3.067,86 v -5.375 m 0,-10.75 v -21.5 m 0,-10.75 v -21.5 m 0,-10.75 V 0 m 3.067,86 V 64.5 m 0,-10.75 v -21.5 m 0,-10.75 V 0 m 3.066,86 v -5.375 m 0,-10.75 v -21.5 m 0,-10.75 v -21.5 m 0,-10.75 V 0 m 3.067,86 V 64.5 m 0,-10.75 v -21.5 m 0,-10.75 V 0 m 3.066,86 v -5.375 m 0,-10.75 v -21.5 m 0,-10.75 v -21.5 m 0,-10.75 V 0 m 3.067,86 V 64.5 m 0,-10.75 v -21.5 m 0,-10.75 V 0 m 3.067,86 v -5.375 m 0,-10.75 v -21.5 m 0,-10.75 v -21.5 m 0,-10.75 V 0 m 3.066,86 V 64.5 m 0,-10.75 v -21.5 m 0,-10.75 V 0 m 3.067,86 v -5.375 m 0,-10.75 v -21.5 m 0,-10.75 v -21.5 m 0,-10.75 V 0 m 3.066,86 V 64.5 m 0,-10.75 v -21.5 m 0,-10.75 V 0 m 3.067,86 v -5.375 m 0,-10.75 v -21.5 m 0,-10.75 v -21.5 m 0,-10.75 V 0 m 3.066,86 V 64.5 m 0,-10.75 v -21.5 m 0,-10.75 V 0 m 3.067,86 v -5.375 m 0,-10.75 v -21.5 m 0,-10.75 v -21.5 m 0,-10.75 V 0 m 3.067,86 V 64.5 m 0,-10.75 v -21.5 m 0,-10.75 V 0 m 3.066,86 v -5.375 m 0,-10.75 v -21.5 m 0,-10.75 v -21.5 m 0,-10.75 V 0 m 3.067,86 V 64.5 m 0,-10.75 v -21.5 m 0,-10.75 V 0 m 3.066,86 v -5.375 m 0,-10.75 v -21.5 m 0,-10.75 v -21.5 m 0,-10.75 V 0 m 3.067,86 V 64.5 m 0,-10.75 v -21.5 m 0,-10.75 V 0 m 3.067,86 v -5.375 m 0,-10.75 v -21.5 m 0,-10.75 v -21.5 m 0,-10.75 V 0 m 3.066,86 V 64.5 m 0,-10.75 v -21.5 m 0,-10.75 V 0 m 3.067,86 v -5.375 m 0,-10.75 v -21.5 m 0,-10.75 v -21.5 m 0,-10.75 V 0 m 3.066,86 V 64.5 m 0,-10.75 v -21.5 m 0,-10.75 V 0"
     id="SIDE_insideCutPath"
     stroke="#0000FF"
     stroke-width="0.1"
     style="font-size:12px;fill:#ff0000;fill-rule:evenodd;stroke:#ff0000;stroke-width:1.045;stroke-linecap:round;stroke-dasharray:none"
     vector-effect="non-scaling-stroke" />
  <path
     d="M 5.9201445,-2.0297638 V 83.970236 h 9.5000005 v -3 h 6 v 3 h 6 v -3 h 6 v 3 h 6 v -3 h 6 v 3 h 6 v -3 h 6 v 3 h 6 v -3 h 6 v 3 h 6 v -3 h 6 v 3 h 6 3.5 125.663995 10 v -3 h 6 v 3 h 6 v -3 h 6 v 3 h 6 v -3 h 6 v 3 h 6 v -3 h 6 v 3 h 6 v -3 h 6 v 3 h 6 v -3 h 6 v 3 h 6 v -3 h 6 v 3 h 6 v -3 h 6 v 3 h 6 v -3 h 6 v 3 h 6 v -3 h 6 v 3 h 6 v -3 h 6 v 3 h 6 v -3 h 6 v 3 h 6 v -3 h 6 v 3 h 6 4 125.663 9.5 v -3 h 6 v 3 h 6 v -3 h 6 v 3 h 6 v -3 h 6 v 3 h 6 v -3 h 6 v 3 h 6 v -3 h 6 v 3 h 6 v -3 h 6 v 3 h 6 3.5 V -2.0297638 h -9.5 v 2.99999996 h -6 V -2.0297638 h -6 v 2.99999996 h -6 V -2.0297638 h -6 v 2.99999996 h -6 V -2.0297638 h -6 v 2.99999996 h -6 V -2.0297638 h -6 v 2.99999996 h -6 V -2.0297638 h -6 v 2.99999996 h -6 V -2.0297638 h -6 -3.5 -125.663 -10 v 2.99999996 h -6 V -2.0297638 h -6 v 2.99999996 h -6 V -2.0297638 h -6 v 2.99999996 h -6 V -2.0297638 h -6 v 2.99999996 h -6 V -2.0297638 h -6 v 2.99999996 h -6 V -2.0297638 h -6 v 2.99999996 h -6 V -2.0297638 h -6 v 2.99999996 h -6 V -2.0297638 h -6 v 2.99999996 h -6 V -2.0297638 h -6 v 2.99999996 h -6 V -2.0297638 h -6 v 2.99999996 h -6 V -2.0297638 h -6 v 2.99999996 h -6 V -2.0297638 h -6 v 2.99999996 h -6 V -2.0297638 h -6 v 2.99999996 h -6 V -2.0297638 h -6 -4 -125.663995 -9.5 v 2.99999996 h -6 V -2.0297638 h -6 v 2.99999996 h -6 V -2.0297638 h -6 v 2.99999996 h -6 V -2.0297638 h -6 v 2.99999996 h -6 V -2.0297638 h -6 v 2.99999996 h -6 V -2.0297638 h -6 v 2.99999996 h -6 V -2.0297638 H 9.4201445 Z"
     id="SIDE_outsideCutPath"
     stroke="#FF0000"
     stroke-width="0.1"
     style="font-size:12px;fill:none;fill-rule:evenodd;stroke:#ff0000;stroke-width:1.045;stroke-linecap:round;stroke-dasharray:none"
     vector-effect="non-scaling-stroke" />
  <circle
     style="fill:none;stroke:#ff0000;stroke-width:0.245;stroke-dasharray:none"
     id="path7"
     cx="41.944302"
     cy="131.0013"
     r="18" />
  <circle
     style="fill:none;stroke:#0000ff;stroke-width:0.245;stroke-dasharray:none"
     id="path7-2"
     cx="41.944302"
     cy="131.0013"
     r="20" />
  <circle
     style="fill:none;stroke:#ff0000;stroke-width:0.245;stroke-dasharray:none"
     id="path7-1"
     cx="211.97008"
     cy="131.0013"
     r="18" />
  <circle
     style="fill:none;stroke:#0000ff;stroke-width:0.245;stroke-dasharray:none"
     id="path7-2-4"
     cx="211.97008"
     cy="131.0013"
     r="20" />
  <rect
     style="fill:none;stroke:#0000ff;stroke-width:0.245;stroke-dasharray:none"
     id="rect8"
     width="81.699997"
     height="50"
     x="89.607445"
     y="106.00695" />
  <rect
     style="fill:none;stroke:#0000ff;stroke-width:0.245;stroke-dasharray:none"
     id="rect8-1"
     width="4.4000001"
     height="4.4000001"
     x="166.90744"
     y="106.00695" />
  <rect
     style="fill:none;stroke:#0000ff;stroke-width:0.245;stroke-dasharray:none"
     id="rect8-1-4"
     width="4.4000001"
     height="4.4000001"
     x="166.90744"
     y="151.60695" />
  <rect
     style="fill:none;stroke:#0000ff;stroke-width:0.245;stroke-dasharray:none"
     id="rect8-1-4-8"
     width="4.4000001"
     height="4.4000001"
     x="89.607445"
     y="151.60695" />
  <rect
     style="fill:none;stroke:#0000ff;stroke-width:0.245;stroke-dasharray:none"
     id="rect8-1-4-7"
     width="4.4000001"
     height="4.4000001"
     x="89.607445"
     y="106.00694" />
  <rect
     style="fill:none;stroke:#ff0000;stroke-width:0.245;stroke-dasharray:none"
     id="rect8-2"
     width="57"
     height="43"
     x="98.487846"
     y="109.5013" />
  <circle
     style="fill:none;stroke:#ff0000;stroke-width:0.245;stroke-dasharray:none"
     id="path8"
     cx="168.40744"
     cy="108.90695"
     r="1.5" />
  <circle
     style="fill:none;stroke:#ff0000;stroke-width:0.245;stroke-dasharray:none"
     id="path8-9"
     cx="168.40744"
     cy="153.10695"
     r="1.5" />
  <circle
     style="fill:none;stroke:#ff0000;stroke-width:0.245;stroke-dasharray:none"
     id="path8-1"
     cx="92.507446"
     cy="108.90694"
     r="1.5" />
  <circle
     style="fill:none;stroke:#ff0000;stroke-width:0.245;stroke-dasharray:none"
     id="path8-1-0"
     cx="75.701378"
     cy="131.0013"
     r="3.5" />
  <circle
     style="fill:none;stroke:#ff0000;stroke-width:0.245;stroke-dasharray:none"
     id="path8-1-0-0"
     cx="178.37469"
     cy="131.0013"
     r="3.5" />
  <circle
     style="fill:none;stroke:#ff0000;stroke-width:0.245;stroke-dasharray:none"
     id="path8-9-9"
     cx="92.507446"
     cy="153.10695"
     r="1.5" />
</svg>
