<?xml version="1.0" encoding="UTF-8" standalone="no"?>
<!-- Created with Inkscape (http://www.inkscape.org/) -->

<svg
   width="250.49712mm"
   height="86.499847mm"
   viewBox="0 0 250.49712 86.499847"
   version="1.1"
   id="svg1"
   inkscape:version="1.4 (86a8ad7, 2024-10-11)"
   sodipodi:docname="Front.svg"
   xmlns:inkscape="http://www.inkscape.org/namespaces/inkscape"
   xmlns:sodipodi="http://sodipodi.sourceforge.net/DTD/sodipodi-0.dtd"
   xmlns="http://www.w3.org/2000/svg"
   xmlns:svg="http://www.w3.org/2000/svg">
  <sodipodi:namedview
     id="namedview1"
     pagecolor="#ffffff"
     bordercolor="#000000"
     borderopacity="0.25"
     inkscape:showpageshadow="2"
     inkscape:pageopacity="0.0"
     inkscape:pagecheckerboard="0"
     inkscape:deskcolor="#d1d1d1"
     inkscape:document-units="mm"
     inkscape:zoom="1.0167041"
     inkscape:cx="391.461"
     inkscape:cy="221.79512"
     inkscape:window-width="1920"
     inkscape:window-height="1009"
     inkscape:window-x="-8"
     inkscape:window-y="-8"
     inkscape:window-maximized="1"
     inkscape:current-layer="layer1" />
  <defs
     id="defs1" />
  <g
     inkscape:label="Layer 1"
     inkscape:groupmode="layer"
     id="layer1"
     transform="translate(-1.3229108,-1.5874798)">
    <rect
       style="fill:none;stroke:#ff0000;stroke-width:0.2;stroke-dasharray:none"
       id="rect8-2"
       width="57"
       height="43"
       x="98.071533"
       y="23.337456" />
    <path
       d="m 211.57092,4.837478 h -9.5 V 1.8374798 h -6 V 4.837478 h -6 V 1.8374798 h -6 V 4.837478 h -6 V 1.8374798 h -6 V 4.837478 h -6 V 1.8374798 h -6 V 4.837478 h -6 V 1.8374798 h -6 V 4.837478 h -6 V 1.8374798 h -6 V 4.837478 h -6 -3.5 -9.5 V 1.8374798 h -6 V 4.837478 h -6 V 1.8374798 H 99.070926 V 4.837478 H 93.070972 V 1.8374798 H 87.071005 V 4.837478 H 81.07102 V 1.8374798 h -6 V 4.837478 h -6 V 1.8374798 h -6 V 4.837478 h -6 V 1.8374798 h -6 V 4.837478 h -6 -3.5 l -2.498,0.078 -2.489,0.234 -2.469,0.3889997 -2.44,0.5429997 -2.401,0.6929997 -2.354,0.8429994 -2.296,0.9869994 -2.23,1.1299994 -2.155,1.2659997 -2.072,1.397997 -1.98,1.526 -1.881,1.645 -1.775,1.761 -1.661001,1.867 -1.5419994,1.968 -1.4149994,2.06 -1.2849991,2.144 -1.1469994,2.221 -1.0069994,2.288 -0.8619994,2.346 -0.7139997,2.396 -0.5619997,2.435 -0.4099997,2.466 -0.254,2.487 -0.099,2.497 0.057,2.499 0.213,2.491 0.3689997,2.472 0.5219997,2.444 0.6739997,2.407 0.8229994,2.361 0.9679997,2.304 1.1109991,2.238995 1.2489994,2.165988 1.3809994,2.082988 1.5079991,1.992988 1.631001,1.894991 1.745,1.788988 1.854,1.676991 1.954,1.557991 2.049,1.431991 2.134,1.301994 2.21,1.165994 2.28,1.025994 2.339,0.880994 2.39,0.733997 2.43,0.582997 2.463,0.429997 2.484,0.274997 2.497,0.119 0.663,0.006 h 10 v 2.999982 h 6 v -2.999982 h 6 v 2.999982 h 6 v -2.999982 h 6 v 2.999982 h 6 v -2.999982 h 5.999982 v 2.999982 h 5.999967 v -2.999982 h 5.999954 v 2.999982 h 5.999997 v -2.999982 h 6 v 2.999982 h 6 v -2.999982 h 6 v 2.999982 h 6 v -2.999982 h 6 v 2.999982 h 6 v -2.999982 h 6 v 2.999982 h 6 v -2.999982 h 6 v 2.999982 h 6 v -2.999982 h 6 v 2.999982 h 6 v -2.999982 h 6 v 2.999982 h 6 v -2.999982 h 6 v 2.999982 h 6 v -2.999982 h 6 4 l 2.499,-0.078 2.488,-0.233997 2.47,-0.389 2.44,-0.542994 2.401,-0.692997 2.353,-0.842997 2.296,-0.986994 2.23,-1.129994 2.155,-1.265991 2.072,-1.397994 1.981,-1.525991 1.881,-1.644991 1.775,-1.760988 1.661,-1.866991 1.542,-1.967988 1.415,-2.059988 1.284,-2.143988 1.148,-2.220988 1.007,-2.288004 0.862,-2.346 0.713,-2.396 0.563,-2.435 0.41,-2.466 0.254,-2.487 0.099,-2.497 -0.057,-2.499 -0.214,-2.491 -0.368,-2.472 -0.522,-2.444 -0.674,-2.407 -0.823,-2.361 -0.969,-2.304 -1.11,-2.239 -1.249,-2.166 -1.381,-2.083 -1.509,-1.993 -1.63,-1.895 -1.745,-1.789 -1.854,-1.677 -1.955,-1.558 -2.048,-1.431999 -2.134,-1.301998 -2.211,-1.1659991 -2.279,-1.0259994 -2.339,-0.8809997 -2.39,-0.7339994 -2.43,-0.5829997 -2.463,-0.4299997 -2.484,-0.275 -2.497,-0.119 z"
       id="TOP_outsideCutPath"
       stroke="#FF0000"
       stroke-width="0.1"
       style="font-size:12px;fill:none;fill-rule:evenodd;stroke:#ff0000;stroke-width:0.5;stroke-linecap:round;stroke-dasharray:none"
       vector-effect="non-scaling-stroke" />
    <circle
       style="fill:none;stroke:#ff0000;stroke-width:0.2;stroke-dasharray:none"
       id="path7"
       cx="41.527969"
       cy="44.837456"
       r="18" />
    <circle
       style="fill:none;stroke:#ff0000;stroke-width:0.2;stroke-dasharray:none"
       id="path7-1"
       cx="211.55397"
       cy="44.837456"
       r="18" />
    <circle
       style="fill:none;stroke:#ff0000;stroke-width:0.2;stroke-dasharray:none"
       id="path8"
       cx="167.99133"
       cy="22.743111"
       r="1.5" />
    <circle
       style="fill:none;stroke:#ff0000;stroke-width:0.2;stroke-dasharray:none"
       id="path8-9"
       cx="167.99133"
       cy="66.943115"
       r="1.5" />
    <circle
       style="fill:none;stroke:#ff0000;stroke-width:0.2;stroke-dasharray:none"
       id="path8-1"
       cx="92.091156"
       cy="22.743095"
       r="1.5" />
    <circle
       style="fill:none;stroke:#ff0000;stroke-width:0.2;stroke-dasharray:none"
       id="path8-1-1"
       cx="41.663643"
       cy="21.921295"
       r="1.5" />
    <circle
       style="fill:none;stroke:#ff0000;stroke-width:0.2;stroke-dasharray:none"
       id="path8-1-6"
       cx="60.577629"
       cy="58.01992"
       r="1.5" />
    <circle
       style="fill:none;stroke:#ff0000;stroke-width:0.2;stroke-dasharray:none"
       id="path8-1-2"
       cx="22.78096"
       cy="58.086067"
       r="1.5" />
    <circle
       style="fill:none;stroke:#ff0000;stroke-width:0.2;stroke-dasharray:none"
       id="path8-1-1-4"
       cx="211.68965"
       cy="21.921295"
       r="1.5" />
    <circle
       style="fill:none;stroke:#ff0000;stroke-width:0.2;stroke-dasharray:none"
       id="path8-1-6-8"
       cx="230.60364"
       cy="58.01992"
       r="1.5" />
    <circle
       style="fill:none;stroke:#ff0000;stroke-width:0.2;stroke-dasharray:none"
       id="path8-1-2-6"
       cx="192.80696"
       cy="58.086067"
       r="1.5" />
    <circle
       style="fill:none;stroke:#ff0000;stroke-width:0.2;stroke-dasharray:none"
       id="path8-1-0"
       cx="75.285049"
       cy="44.837456"
       r="3.5" />
    <circle
       style="fill:none;stroke:#ff0000;stroke-width:0.2;stroke-dasharray:none"
       id="path8-1-0-0"
       cx="177.95859"
       cy="44.837456"
       r="3.5" />
    <circle
       style="fill:none;stroke:#ff0000;stroke-width:0.2;stroke-dasharray:none"
       id="path8-9-9"
       cx="92.091156"
       cy="66.943115"
       r="1.5" />
  </g>
</svg>
