  0
SECTION
  2
HEADER
  9
$ACADVER
  1
AC1014
  9
$HANDSEED
  5
FFFF
  9
$INSUNITS
 70
     4
  9
$MEASUREMENT
 70
     1
  0
ENDSEC
  0
SECTION
  2
TABLES
  0
TABLE
  2
VPORT
  5
8
330
0
100
AcDbSymbolTable
 70
     4
  0
VPORT
  5
2E
330
8
100
AcDbSymbolTableRecord
100
AcDbViewportTableRecord
  2
*ACTIVE
 70
     0
 10
0.0
 20
0.0
 11
1.0
 21
1.0
 12
210.0
 22
148.5
 13
0.0
 23
0.0
 14
10.0
 24
10.0
 15
10.0
 25
10.0
 16
0.0
 26
0.0
 36
1.0
 17
0.0
 27
0.0
 37
0.0
 40
341.0
 41
1.24
 42
50.0
 43
0.0
 44
0.0
 50
0.0
 51
0.0
 71
     0
 72
   100
 73
     1
 74
     3
 75
     0
 76
     0
 77
     0
 78
     0
  0
ENDTAB
  0
TABLE
  2
LTYPE
  5
5
330
0
100
AcDbSymbolTable
 70
     1
  0
LTYPE
  5
14
330
5
100
AcDbSymbolTableRecord
100
AcDbLinetypeTableRecord
  2
BYBLOCK
 70
     0
  3

 72
    65
 73
     0
 40
0.0
  0
LTYPE
  5
15
330
5
100
AcDbSymbolTableRecord
100
AcDbLinetypeTableRecord
  2
BYLAYER
 70
     0
  3

 72
    65
 73
     0
 40
0.0
  0
LTYPE
  5
16
330
5
100
AcDbSymbolTableRecord
100
AcDbLinetypeTableRecord
  2
CONTINUOUS
 70
     0
  3
Solid line
 72
    65
 73
     0
 40
0.0
  0
ENDTAB
  0
TABLE
  2
LAYER
  5
2
100
AcDbSymbolTable
 70
2
  0
LAYER
  5
50
100
AcDbSymbolTableRecord
100
AcDbLayerTableRecord
  2
0
 70
0
  6
CONTINUOUS
  0
LAYER
  5
51
100
AcDbSymbolTableRecord
100
AcDbLayerTableRecord
  2
Layer_1
 70
0
  6
CONTINUOUS
  0
ENDTAB
  0
TABLE
  2
STYLE
  5
3
330
0
100
AcDbSymbolTable
 70
     1
  0
STYLE
  5
11
330
3
100
AcDbSymbolTableRecord
100
AcDbTextStyleTableRecord
  2
STANDARD
 70
     0
 40
0.0
 41
1.0
 50
0.0
 71
     0
 42
2.5
  3
txt
  4

  0
ENDTAB
  0
TABLE
  2
VIEW
  5
6
330
0
100
AcDbSymbolTable
 70
     0
  0
ENDTAB
  0
TABLE
  2
UCS
  5
7
330
0
100
AcDbSymbolTable
 70
     0
  0
ENDTAB
  0
TABLE
  2
APPID
  5
9
330
0
100
AcDbSymbolTable
 70
     2
  0
APPID
  5
12
330
9
100
AcDbSymbolTableRecord
100
AcDbRegAppTableRecord
  2
ACAD
 70
     0
  0
ENDTAB
  0
TABLE
  2
DIMSTYLE
  5
A
330
0
100
AcDbSymbolTable
 70
     1
  0
DIMSTYLE
105
27
330
A
100
AcDbSymbolTableRecord
100
AcDbDimStyleTableRecord
  2
ISO-25
 70
     0
  3

  4

  5

  6

  7

 40
1.0
 41
2.5
 42
0.625
 43
3.75
 44
1.25
 45
0.0
 46
0.0
 47
0.0
 48
0.0
140
2.5
141
2.5
142
0.0
143
0.03937007874016
144
1.0
145
0.0
146
1.0
147
0.625
 71
     0
 72
     0
 73
     0
 74
     0
 75
     0
 76
     0
 77
     1
 78
     8
170
     0
171
     3
172
     1
173
     0
174
     0
175
     0
176
     0
177
     0
178
     0
270
     2
271
     2
272
     2
273
     2
274
     3
340
11
275
     0
280
     0
281
     0
282
     0
283
     0
284
     8
285
     0
286
     0
287
     3
288
     0
  0
ENDTAB
  0
TABLE
  2
BLOCK_RECORD
  5
1
330
0
100
AcDbSymbolTable
 70
     1
  0
BLOCK_RECORD
  5
1F
330
1
100
AcDbSymbolTableRecord
100
AcDbBlockTableRecord
  2
*MODEL_SPACE
  0
BLOCK_RECORD
  5
1B
330
1
100
AcDbSymbolTableRecord
100
AcDbBlockTableRecord
  2
*PAPER_SPACE
  0
ENDTAB
  0
ENDSEC
  0
SECTION
  2
BLOCKS
  0
BLOCK
  5
20
330
1F
100
AcDbEntity
  8
0
100
AcDbBlockBegin
  2
*MODEL_SPACE
 70
     0
 10
0.0
 20
0.0
 30
0.0
  3
*MODEL_SPACE
  1

  0
ENDBLK
  5
21
330
1F
100
AcDbEntity
  8
0
100
AcDbBlockEnd
  0
BLOCK
  5
1C
330
1B
100
AcDbEntity
 67
     1
  8
0
100
AcDbBlockBegin
  2
*PAPER_SPACE
  1

  0
ENDBLK
  5
1D
330
1B
100
AcDbEntity
 67
     1
  8
0
100
AcDbBlockEnd
  0
ENDSEC
  0
SECTION
  2
ENTITIES
  0
LWPOLYLINE
  5
100
100
AcDbEntity
  8
Layer_1
 62
1
100
AcDbPolyline
 90
4
 70
1
 10
96.748623
 20
64.749871
 30
0.0
 10
153.748623
 20
64.749871
 30
0.0
 10
153.748623
 20
21.749871
 30
0.0
 10
96.748623
 20
21.749871
 30
0.0
  0
SPLINE
  5
101
100
AcDbEntity
  8
Layer_1
 62
1
100
AcDbSpline
 70
8
 71
3
 72
8
 73
4
 74
0
 40
0
 40
0
 40
0
 40
0
 40
1
 40
1
 40
1
 40
1
 10
40.205059
 20
61.249871
 30
0.0
 10
32.924739
 20
61.249871
 30
0.0
 10
26.361285
 20
56.864312
 30
0.0
 10
23.575227
 20
50.138173
 30
0.0
  0
SPLINE
  5
102
100
AcDbEntity
  8
Layer_1
 62
1
100
AcDbSpline
 70
8
 71
3
 72
8
 73
4
 74
0
 40
0
 40
0
 40
0
 40
0
 40
1
 40
1
 40
1
 40
1
 10
23.575227
 20
50.138173
 30
0.0
 10
20.789169
 20
43.412034
 30
0.0
 10
22.329173
 20
35.669913
 30
0.0
 10
27.477137
 20
30.521949
 30
0.0
  0
SPLINE
  5
103
100
AcDbEntity
  8
Layer_1
 62
1
100
AcDbSpline
 70
8
 71
3
 72
8
 73
4
 74
0
 40
0
 40
0
 40
0
 40
0
 40
1
 40
1
 40
1
 40
1
 10
27.477137
 20
30.521949
 30
0.0
 10
32.625101
 20
25.373985
 30
0.0
 10
40.367222
 20
23.833981
 30
0.0
 10
47.093361
 20
26.620039
 30
0.0
  0
SPLINE
  5
104
100
AcDbEntity
  8
Layer_1
 62
1
100
AcDbSpline
 70
8
 71
3
 72
8
 73
4
 74
0
 40
0
 40
0
 40
0
 40
0
 40
1
 40
1
 40
1
 40
1
 10
47.093361
 20
26.620039
 30
0.0
 10
53.819500
 20
29.406097
 30
0.0
 10
58.205059
 20
35.969551
 30
0.0
 10
58.205059
 20
43.249871
 30
0.0
  0
SPLINE
  5
105
100
AcDbEntity
  8
Layer_1
 62
1
100
AcDbSpline
 70
8
 71
3
 72
8
 73
4
 74
0
 40
0
 40
0
 40
0
 40
0
 40
1
 40
1
 40
1
 40
1
 10
58.205059
 20
43.249871
 30
0.0
 10
58.205059
 20
48.023768
 30
0.0
 10
56.308636
 20
52.602138
 30
0.0
 10
52.932981
 20
55.977793
 30
0.0
  0
SPLINE
  5
106
100
AcDbEntity
  8
Layer_1
 62
1
100
AcDbSpline
 70
8
 71
3
 72
8
 73
4
 74
0
 40
0
 40
0
 40
0
 40
0
 40
1
 40
1
 40
1
 40
1
 10
52.932981
 20
55.977793
 30
0.0
 10
49.557326
 20
59.353448
 30
0.0
 10
44.978956
 20
61.249871
 30
0.0
 10
40.205059
 20
61.249871
 30
0.0
  0
LWPOLYLINE
  5
107
100
AcDbEntity
  8
Layer_1
 62
1
100
AcDbPolyline
 90
208
 70
1
 10
210.248010
 20
83.249849
 30
0.0
 10
200.748010
 20
83.249849
 30
0.0
 10
200.748010
 20
86.249847
 30
0.0
 10
194.748010
 20
86.249847
 30
0.0
 10
194.748010
 20
83.249849
 30
0.0
 10
188.748010
 20
83.249849
 30
0.0
 10
188.748010
 20
86.249847
 30
0.0
 10
182.748010
 20
86.249847
 30
0.0
 10
182.748010
 20
83.249849
 30
0.0
 10
176.748010
 20
83.249849
 30
0.0
 10
176.748010
 20
86.249847
 30
0.0
 10
170.748010
 20
86.249847
 30
0.0
 10
170.748010
 20
83.249849
 30
0.0
 10
164.748010
 20
83.249849
 30
0.0
 10
164.748010
 20
86.249847
 30
0.0
 10
158.748010
 20
86.249847
 30
0.0
 10
158.748010
 20
83.249849
 30
0.0
 10
152.748010
 20
83.249849
 30
0.0
 10
152.748010
 20
86.249847
 30
0.0
 10
146.748010
 20
86.249847
 30
0.0
 10
146.748010
 20
83.249849
 30
0.0
 10
140.748010
 20
83.249849
 30
0.0
 10
140.748010
 20
86.249847
 30
0.0
 10
134.748010
 20
86.249847
 30
0.0
 10
134.748010
 20
83.249849
 30
0.0
 10
128.748010
 20
83.249849
 30
0.0
 10
125.248010
 20
83.249849
 30
0.0
 10
115.748010
 20
83.249849
 30
0.0
 10
115.748010
 20
86.249847
 30
0.0
 10
109.748010
 20
86.249847
 30
0.0
 10
109.748010
 20
83.249849
 30
0.0
 10
103.748010
 20
83.249849
 30
0.0
 10
103.748010
 20
86.249847
 30
0.0
 10
97.748016
 20
86.249847
 30
0.0
 10
97.748016
 20
83.249849
 30
0.0
 10
91.748062
 20
83.249849
 30
0.0
 10
91.748062
 20
86.249847
 30
0.0
 10
85.748095
 20
86.249847
 30
0.0
 10
85.748095
 20
83.249849
 30
0.0
 10
79.748110
 20
83.249849
 30
0.0
 10
79.748110
 20
86.249847
 30
0.0
 10
73.748110
 20
86.249847
 30
0.0
 10
73.748110
 20
83.249849
 30
0.0
 10
67.748110
 20
83.249849
 30
0.0
 10
67.748110
 20
86.249847
 30
0.0
 10
61.748110
 20
86.249847
 30
0.0
 10
61.748110
 20
83.249849
 30
0.0
 10
55.748110
 20
83.249849
 30
0.0
 10
55.748110
 20
86.249847
 30
0.0
 10
49.748110
 20
86.249847
 30
0.0
 10
49.748110
 20
83.249849
 30
0.0
 10
43.748110
 20
83.249849
 30
0.0
 10
40.248110
 20
83.249849
 30
0.0
 10
37.750110
 20
83.171849
 30
0.0
 10
35.261110
 20
82.937849
 30
0.0
 10
32.792110
 20
82.548849
 30
0.0
 10
30.352110
 20
82.005850
 30
0.0
 10
27.951110
 20
81.312850
 30
0.0
 10
25.597110
 20
80.469851
 30
0.0
 10
23.301110
 20
79.482851
 30
0.0
 10
21.071110
 20
78.352852
 30
0.0
 10
18.916110
 20
77.086852
 30
0.0
 10
16.844110
 20
75.688855
 30
0.0
 10
14.864110
 20
74.162855
 30
0.0
 10
12.983110
 20
72.517855
 30
0.0
 10
11.208110
 20
70.756855
 30
0.0
 10
9.547109
 20
68.889855
 30
0.0
 10
8.005110
 20
66.921855
 30
0.0
 10
6.590110
 20
64.861855
 30
0.0
 10
5.305111
 20
62.717855
 30
0.0
 10
4.158112
 20
60.496855
 30
0.0
 10
3.151112
 20
58.208855
 30
0.0
 10
2.289113
 20
55.862855
 30
0.0
 10
1.575113
 20
53.466855
 30
0.0
 10
1.013114
 20
51.031855
 30
0.0
 10
0.603114
 20
48.565855
 30
0.0
 10
0.349114
 20
46.078855
 30
0.0
 10
0.250114
 20
43.581855
 30
0.0
 10
0.307114
 20
41.082855
 30
0.0
 10
0.520114
 20
38.591855
 30
0.0
 10
0.889114
 20
36.119855
 30
0.0
 10
1.411113
 20
33.675855
 30
0.0
 10
2.085113
 20
31.268855
 30
0.0
 10
2.908112
 20
28.907855
 30
0.0
 10
3.876112
 20
26.603855
 30
0.0
 10
4.987111
 20
24.364860
 30
0.0
 10
6.236111
 20
22.198872
 30
0.0
 10
7.617110
 20
20.115884
 30
0.0
 10
9.125109
 20
18.122896
 30
0.0
 10
10.756110
 20
16.227905
 30
0.0
 10
12.501110
 20
14.438917
 30
0.0
 10
14.355110
 20
12.761926
 30
0.0
 10
16.309110
 20
11.203935
 30
0.0
 10
18.358110
 20
9.771944
 30
0.0
 10
20.492110
 20
8.469950
 30
0.0
 10
22.702110
 20
7.303956
 30
0.0
 10
24.982110
 20
6.277962
 30
0.0
 10
27.321110
 20
5.396968
 30
0.0
 10
29.711110
 20
4.662971
 30
0.0
 10
32.141110
 20
4.079974
 30
0.0
 10
34.604110
 20
3.649977
 30
0.0
 10
37.088110
 20
3.374980
 30
0.0
 10
39.585110
 20
3.255980
 30
0.0
 10
40.248110
 20
3.249980
 30
0.0
 10
50.248110
 20
3.249980
 30
0.0
 10
50.248110
 20
0.249998
 30
0.0
 10
56.248110
 20
0.249998
 30
0.0
 10
56.248110
 20
3.249980
 30
0.0
 10
62.248110
 20
3.249980
 30
0.0
 10
62.248110
 20
0.249998
 30
0.0
 10
68.248110
 20
0.249998
 30
0.0
 10
68.248110
 20
3.249980
 30
0.0
 10
74.248110
 20
3.249980
 30
0.0
 10
74.248110
 20
0.249998
 30
0.0
 10
80.248110
 20
0.249998
 30
0.0
 10
80.248110
 20
3.249980
 30
0.0
 10
86.248092
 20
3.249980
 30
0.0
 10
86.248092
 20
0.249998
 30
0.0
 10
92.248059
 20
0.249998
 30
0.0
 10
92.248059
 20
3.249980
 30
0.0
 10
98.248013
 20
3.249980
 30
0.0
 10
98.248013
 20
0.249998
 30
0.0
 10
104.248010
 20
0.249998
 30
0.0
 10
104.248010
 20
3.249980
 30
0.0
 10
110.248010
 20
3.249980
 30
0.0
 10
110.248010
 20
0.249998
 30
0.0
 10
116.248010
 20
0.249998
 30
0.0
 10
116.248010
 20
3.249980
 30
0.0
 10
122.248010
 20
3.249980
 30
0.0
 10
122.248010
 20
0.249998
 30
0.0
 10
128.248010
 20
0.249998
 30
0.0
 10
128.248010
 20
3.249980
 30
0.0
 10
134.248010
 20
3.249980
 30
0.0
 10
134.248010
 20
0.249998
 30
0.0
 10
140.248010
 20
0.249998
 30
0.0
 10
140.248010
 20
3.249980
 30
0.0
 10
146.248010
 20
3.249980
 30
0.0
 10
146.248010
 20
0.249998
 30
0.0
 10
152.248010
 20
0.249998
 30
0.0
 10
152.248010
 20
3.249980
 30
0.0
 10
158.248010
 20
3.249980
 30
0.0
 10
158.248010
 20
0.249998
 30
0.0
 10
164.248010
 20
0.249998
 30
0.0
 10
164.248010
 20
3.249980
 30
0.0
 10
170.248010
 20
3.249980
 30
0.0
 10
170.248010
 20
0.249998
 30
0.0
 10
176.248010
 20
0.249998
 30
0.0
 10
176.248010
 20
3.249980
 30
0.0
 10
182.248010
 20
3.249980
 30
0.0
 10
182.248010
 20
0.249998
 30
0.0
 10
188.248010
 20
0.249998
 30
0.0
 10
188.248010
 20
3.249980
 30
0.0
 10
194.248010
 20
3.249980
 30
0.0
 10
194.248010
 20
0.249998
 30
0.0
 10
200.248010
 20
0.249998
 30
0.0
 10
200.248010
 20
3.249980
 30
0.0
 10
206.248010
 20
3.249980
 30
0.0
 10
210.248010
 20
3.249980
 30
0.0
 10
212.747010
 20
3.327980
 30
0.0
 10
215.235010
 20
3.561977
 30
0.0
 10
217.705010
 20
3.950977
 30
0.0
 10
220.145010
 20
4.493971
 30
0.0
 10
222.546010
 20
5.186968
 30
0.0
 10
224.899010
 20
6.029965
 30
0.0
 10
227.195010
 20
7.016959
 30
0.0
 10
229.425010
 20
8.146953
 30
0.0
 10
231.580010
 20
9.412944
 30
0.0
 10
233.652010
 20
10.810938
 30
0.0
 10
235.633010
 20
12.336929
 30
0.0
 10
237.514010
 20
13.981920
 30
0.0
 10
239.289010
 20
15.742908
 30
0.0
 10
240.950010
 20
17.609899
 30
0.0
 10
242.492010
 20
19.577887
 30
0.0
 10
243.907010
 20
21.637875
 30
0.0
 10
245.191010
 20
23.781863
 30
0.0
 10
246.339010
 20
26.002851
 30
0.0
 10
247.346010
 20
28.290855
 30
0.0
 10
248.208010
 20
30.636855
 30
0.0
 10
248.921010
 20
33.032855
 30
0.0
 10
249.484010
 20
35.467855
 30
0.0
 10
249.894010
 20
37.933855
 30
0.0
 10
250.148010
 20
40.420855
 30
0.0
 10
250.247010
 20
42.917855
 30
0.0
 10
250.190010
 20
45.416855
 30
0.0
 10
249.976010
 20
47.907855
 30
0.0
 10
249.608010
 20
50.379855
 30
0.0
 10
249.086010
 20
52.823855
 30
0.0
 10
248.412010
 20
55.230855
 30
0.0
 10
247.589010
 20
57.591855
 30
0.0
 10
246.620010
 20
59.895855
 30
0.0
 10
245.510010
 20
62.134855
 30
0.0
 10
244.261010
 20
64.300855
 30
0.0
 10
242.880010
 20
66.383855
 30
0.0
 10
241.371010
 20
68.376855
 30
0.0
 10
239.741010
 20
70.271855
 30
0.0
 10
237.996010
 20
72.060855
 30
0.0
 10
236.142010
 20
73.737855
 30
0.0
 10
234.187010
 20
75.295855
 30
0.0
 10
232.139010
 20
76.727854
 30
0.0
 10
230.005010
 20
78.029852
 30
0.0
 10
227.794010
 20
79.195851
 30
0.0
 10
225.515010
 20
80.221850
 30
0.0
 10
223.176010
 20
81.102850
 30
0.0
 10
220.786010
 20
81.836850
 30
0.0
 10
218.356010
 20
82.419849
 30
0.0
 10
215.893010
 20
82.849849
 30
0.0
 10
213.409010
 20
83.124849
 30
0.0
 10
210.912010
 20
83.243849
 30
0.0
  0
SPLINE
  5
108
100
AcDbEntity
  8
Layer_1
 62
1
100
AcDbSpline
 70
8
 71
3
 72
8
 73
4
 74
0
 40
0
 40
0
 40
0
 40
0
 40
1
 40
1
 40
1
 40
1
 10
210.231060
 20
61.249871
 30
0.0
 10
202.950740
 20
61.249871
 30
0.0
 10
196.387286
 20
56.864312
 30
0.0
 10
193.601228
 20
50.138173
 30
0.0
  0
SPLINE
  5
109
100
AcDbEntity
  8
Layer_1
 62
1
100
AcDbSpline
 70
8
 71
3
 72
8
 73
4
 74
0
 40
0
 40
0
 40
0
 40
0
 40
1
 40
1
 40
1
 40
1
 10
193.601228
 20
50.138173
 30
0.0
 10
190.815170
 20
43.412034
 30
0.0
 10
192.355174
 20
35.669913
 30
0.0
 10
197.503138
 20
30.521949
 30
0.0
  0
SPLINE
  5
10a
100
AcDbEntity
  8
Layer_1
 62
1
100
AcDbSpline
 70
8
 71
3
 72
8
 73
4
 74
0
 40
0
 40
0
 40
0
 40
0
 40
1
 40
1
 40
1
 40
1
 10
197.503138
 20
30.521949
 30
0.0
 10
202.651102
 20
25.373985
 30
0.0
 10
210.393223
 20
23.833981
 30
0.0
 10
217.119362
 20
26.620039
 30
0.0
  0
SPLINE
  5
10b
100
AcDbEntity
  8
Layer_1
 62
1
100
AcDbSpline
 70
8
 71
3
 72
8
 73
4
 74
0
 40
0
 40
0
 40
0
 40
0
 40
1
 40
1
 40
1
 40
1
 10
217.119362
 20
26.620039
 30
0.0
 10
223.845501
 20
29.406097
 30
0.0
 10
228.231060
 20
35.969551
 30
0.0
 10
228.231060
 20
43.249871
 30
0.0
  0
SPLINE
  5
10c
100
AcDbEntity
  8
Layer_1
 62
1
100
AcDbSpline
 70
8
 71
3
 72
8
 73
4
 74
0
 40
0
 40
0
 40
0
 40
0
 40
1
 40
1
 40
1
 40
1
 10
228.231060
 20
43.249871
 30
0.0
 10
228.231060
 20
48.023768
 30
0.0
 10
226.334637
 20
52.602138
 30
0.0
 10
222.958982
 20
55.977793
 30
0.0
  0
SPLINE
  5
10d
100
AcDbEntity
  8
Layer_1
 62
1
100
AcDbSpline
 70
8
 71
3
 72
8
 73
4
 74
0
 40
0
 40
0
 40
0
 40
0
 40
1
 40
1
 40
1
 40
1
 10
222.958982
 20
55.977793
 30
0.0
 10
219.583327
 20
59.353448
 30
0.0
 10
215.004957
 20
61.249871
 30
0.0
 10
210.231060
 20
61.249871
 30
0.0
  0
LWPOLYLINE
  5
10e
100
AcDbEntity
  8
Layer_1
 62
1
100
AcDbPolyline
 90
1
 70
1
 10
40.205059
 20
61.249871
 30
0.0
  0
SPLINE
  5
10f
100
AcDbEntity
  8
Layer_1
 62
1
100
AcDbSpline
 70
8
 71
3
 72
8
 73
4
 74
0
 40
0
 40
0
 40
0
 40
0
 40
1
 40
1
 40
1
 40
1
 10
166.668420
 20
66.844216
 30
0.0
 10
166.061727
 20
66.844216
 30
0.0
 10
165.514772
 20
66.478753
 30
0.0
 10
165.282601
 20
65.918241
 30
0.0
  0
SPLINE
  5
110
100
AcDbEntity
  8
Layer_1
 62
1
100
AcDbSpline
 70
8
 71
3
 72
8
 73
4
 74
0
 40
0
 40
0
 40
0
 40
0
 40
1
 40
1
 40
1
 40
1
 10
165.282601
 20
65.918241
 30
0.0
 10
165.050429
 20
65.357730
 30
0.0
 10
165.178763
 20
64.712553
 30
0.0
 10
165.607760
 20
64.283556
 30
0.0
  0
SPLINE
  5
111
100
AcDbEntity
  8
Layer_1
 62
1
100
AcDbSpline
 70
8
 71
3
 72
8
 73
4
 74
0
 40
0
 40
0
 40
0
 40
0
 40
1
 40
1
 40
1
 40
1
 10
165.607760
 20
64.283556
 30
0.0
 10
166.036757
 20
63.854559
 30
0.0
 10
166.681934
 20
63.726225
 30
0.0
 10
167.242445
 20
63.958397
 30
0.0
  0
SPLINE
  5
112
100
AcDbEntity
  8
Layer_1
 62
1
100
AcDbSpline
 70
8
 71
3
 72
8
 73
4
 74
0
 40
0
 40
0
 40
0
 40
0
 40
1
 40
1
 40
1
 40
1
 10
167.242445
 20
63.958397
 30
0.0
 10
167.802957
 20
64.190568
 30
0.0
 10
168.168420
 20
64.737523
 30
0.0
 10
168.168420
 20
65.344216
 30
0.0
  0
SPLINE
  5
113
100
AcDbEntity
  8
Layer_1
 62
1
100
AcDbSpline
 70
8
 71
3
 72
8
 73
4
 74
0
 40
0
 40
0
 40
0
 40
0
 40
1
 40
1
 40
1
 40
1
 10
168.168420
 20
65.344216
 30
0.0
 10
168.168420
 20
65.742041
 30
0.0
 10
168.010385
 20
66.123572
 30
0.0
 10
167.729080
 20
66.404876
 30
0.0
  0
SPLINE
  5
114
100
AcDbEntity
  8
Layer_1
 62
1
100
AcDbSpline
 70
8
 71
3
 72
8
 73
4
 74
0
 40
0
 40
0
 40
0
 40
0
 40
1
 40
1
 40
1
 40
1
 10
167.729080
 20
66.404876
 30
0.0
 10
167.447776
 20
66.686181
 30
0.0
 10
167.066245
 20
66.844216
 30
0.0
 10
166.668420
 20
66.844216
 30
0.0
  0
LWPOLYLINE
  5
115
100
AcDbEntity
  8
Layer_1
 62
1
100
AcDbPolyline
 90
1
 70
1
 10
210.231060
 20
61.249871
 30
0.0
  0
SPLINE
  5
116
100
AcDbEntity
  8
Layer_1
 62
1
100
AcDbSpline
 70
8
 71
3
 72
8
 73
4
 74
0
 40
0
 40
0
 40
0
 40
0
 40
1
 40
1
 40
1
 40
1
 10
166.668420
 20
22.644212
 30
0.0
 10
166.061727
 20
22.644212
 30
0.0
 10
165.514772
 20
22.278749
 30
0.0
 10
165.282601
 20
21.718237
 30
0.0
  0
SPLINE
  5
117
100
AcDbEntity
  8
Layer_1
 62
1
100
AcDbSpline
 70
8
 71
3
 72
8
 73
4
 74
0
 40
0
 40
0
 40
0
 40
0
 40
1
 40
1
 40
1
 40
1
 10
165.282601
 20
21.718237
 30
0.0
 10
165.050429
 20
21.157726
 30
0.0
 10
165.178763
 20
20.512549
 30
0.0
 10
165.607760
 20
20.083552
 30
0.0
  0
SPLINE
  5
118
100
AcDbEntity
  8
Layer_1
 62
1
100
AcDbSpline
 70
8
 71
3
 72
8
 73
4
 74
0
 40
0
 40
0
 40
0
 40
0
 40
1
 40
1
 40
1
 40
1
 10
165.607760
 20
20.083552
 30
0.0
 10
166.036757
 20
19.654555
 30
0.0
 10
166.681934
 20
19.526221
 30
0.0
 10
167.242445
 20
19.758393
 30
0.0
  0
SPLINE
  5
119
100
AcDbEntity
  8
Layer_1
 62
1
100
AcDbSpline
 70
8
 71
3
 72
8
 73
4
 74
0
 40
0
 40
0
 40
0
 40
0
 40
1
 40
1
 40
1
 40
1
 10
167.242445
 20
19.758393
 30
0.0
 10
167.802957
 20
19.990564
 30
0.0
 10
168.168420
 20
20.537519
 30
0.0
 10
168.168420
 20
21.144212
 30
0.0
  0
SPLINE
  5
11a
100
AcDbEntity
  8
Layer_1
 62
1
100
AcDbSpline
 70
8
 71
3
 72
8
 73
4
 74
0
 40
0
 40
0
 40
0
 40
0
 40
1
 40
1
 40
1
 40
1
 10
168.168420
 20
21.144212
 30
0.0
 10
168.168420
 20
21.542037
 30
0.0
 10
168.010385
 20
21.923568
 30
0.0
 10
167.729080
 20
22.204872
 30
0.0
  0
SPLINE
  5
11b
100
AcDbEntity
  8
Layer_1
 62
1
100
AcDbSpline
 70
8
 71
3
 72
8
 73
4
 74
0
 40
0
 40
0
 40
0
 40
0
 40
1
 40
1
 40
1
 40
1
 10
167.729080
 20
22.204872
 30
0.0
 10
167.447776
 20
22.486177
 30
0.0
 10
167.066245
 20
22.644212
 30
0.0
 10
166.668420
 20
22.644212
 30
0.0
  0
LWPOLYLINE
  5
11c
100
AcDbEntity
  8
Layer_1
 62
1
100
AcDbPolyline
 90
1
 70
1
 10
166.668420
 20
66.844216
 30
0.0
  0
SPLINE
  5
11d
100
AcDbEntity
  8
Layer_1
 62
1
100
AcDbSpline
 70
8
 71
3
 72
8
 73
4
 74
0
 40
0
 40
0
 40
0
 40
0
 40
1
 40
1
 40
1
 40
1
 10
90.768246
 20
66.844232
 30
0.0
 10
90.161553
 20
66.844232
 30
0.0
 10
89.614598
 20
66.478769
 30
0.0
 10
89.382427
 20
65.918257
 30
0.0
  0
SPLINE
  5
11e
100
AcDbEntity
  8
Layer_1
 62
1
100
AcDbSpline
 70
8
 71
3
 72
8
 73
4
 74
0
 40
0
 40
0
 40
0
 40
0
 40
1
 40
1
 40
1
 40
1
 10
89.382427
 20
65.918257
 30
0.0
 10
89.150255
 20
65.357746
 30
0.0
 10
89.278589
 20
64.712569
 30
0.0
 10
89.707586
 20
64.283572
 30
0.0
  0
SPLINE
  5
11f
100
AcDbEntity
  8
Layer_1
 62
1
100
AcDbSpline
 70
8
 71
3
 72
8
 73
4
 74
0
 40
0
 40
0
 40
0
 40
0
 40
1
 40
1
 40
1
 40
1
 10
89.707586
 20
64.283572
 30
0.0
 10
90.136583
 20
63.854575
 30
0.0
 10
90.781760
 20
63.726241
 30
0.0
 10
91.342271
 20
63.958413
 30
0.0
  0
SPLINE
  5
120
100
AcDbEntity
  8
Layer_1
 62
1
100
AcDbSpline
 70
8
 71
3
 72
8
 73
4
 74
0
 40
0
 40
0
 40
0
 40
0
 40
1
 40
1
 40
1
 40
1
 10
91.342271
 20
63.958413
 30
0.0
 10
91.902783
 20
64.190584
 30
0.0
 10
92.268246
 20
64.737539
 30
0.0
 10
92.268246
 20
65.344232
 30
0.0
  0
SPLINE
  5
121
100
AcDbEntity
  8
Layer_1
 62
1
100
AcDbSpline
 70
8
 71
3
 72
8
 73
4
 74
0
 40
0
 40
0
 40
0
 40
0
 40
1
 40
1
 40
1
 40
1
 10
92.268246
 20
65.344232
 30
0.0
 10
92.268246
 20
65.742057
 30
0.0
 10
92.110211
 20
66.123588
 30
0.0
 10
91.828906
 20
66.404892
 30
0.0
  0
SPLINE
  5
122
100
AcDbEntity
  8
Layer_1
 62
1
100
AcDbSpline
 70
8
 71
3
 72
8
 73
4
 74
0
 40
0
 40
0
 40
0
 40
0
 40
1
 40
1
 40
1
 40
1
 10
91.828906
 20
66.404892
 30
0.0
 10
91.547602
 20
66.686197
 30
0.0
 10
91.166071
 20
66.844232
 30
0.0
 10
90.768246
 20
66.844232
 30
0.0
  0
LWPOLYLINE
  5
123
100
AcDbEntity
  8
Layer_1
 62
1
100
AcDbPolyline
 90
1
 70
1
 10
166.668420
 20
22.644212
 30
0.0
  0
SPLINE
  5
124
100
AcDbEntity
  8
Layer_1
 62
1
100
AcDbSpline
 70
8
 71
3
 72
8
 73
4
 74
0
 40
0
 40
0
 40
0
 40
0
 40
1
 40
1
 40
1
 40
1
 10
40.340733
 20
67.666032
 30
0.0
 10
39.734040
 20
67.666032
 30
0.0
 10
39.187085
 20
67.300569
 30
0.0
 10
38.954914
 20
66.740057
 30
0.0
  0
SPLINE
  5
125
100
AcDbEntity
  8
Layer_1
 62
1
100
AcDbSpline
 70
8
 71
3
 72
8
 73
4
 74
0
 40
0
 40
0
 40
0
 40
0
 40
1
 40
1
 40
1
 40
1
 10
38.954914
 20
66.740057
 30
0.0
 10
38.722742
 20
66.179546
 30
0.0
 10
38.851076
 20
65.534369
 30
0.0
 10
39.280073
 20
65.105372
 30
0.0
  0
SPLINE
  5
126
100
AcDbEntity
  8
Layer_1
 62
1
100
AcDbSpline
 70
8
 71
3
 72
8
 73
4
 74
0
 40
0
 40
0
 40
0
 40
0
 40
1
 40
1
 40
1
 40
1
 10
39.280073
 20
65.105372
 30
0.0
 10
39.709070
 20
64.676375
 30
0.0
 10
40.354247
 20
64.548041
 30
0.0
 10
40.914758
 20
64.780213
 30
0.0
  0
SPLINE
  5
127
100
AcDbEntity
  8
Layer_1
 62
1
100
AcDbSpline
 70
8
 71
3
 72
8
 73
4
 74
0
 40
0
 40
0
 40
0
 40
0
 40
1
 40
1
 40
1
 40
1
 10
40.914758
 20
64.780213
 30
0.0
 10
41.475270
 20
65.012384
 30
0.0
 10
41.840733
 20
65.559339
 30
0.0
 10
41.840733
 20
66.166032
 30
0.0
  0
SPLINE
  5
128
100
AcDbEntity
  8
Layer_1
 62
1
100
AcDbSpline
 70
8
 71
3
 72
8
 73
4
 74
0
 40
0
 40
0
 40
0
 40
0
 40
1
 40
1
 40
1
 40
1
 10
41.840733
 20
66.166032
 30
0.0
 10
41.840733
 20
66.563857
 30
0.0
 10
41.682698
 20
66.945388
 30
0.0
 10
41.401393
 20
67.226692
 30
0.0
  0
SPLINE
  5
129
100
AcDbEntity
  8
Layer_1
 62
1
100
AcDbSpline
 70
8
 71
3
 72
8
 73
4
 74
0
 40
0
 40
0
 40
0
 40
0
 40
1
 40
1
 40
1
 40
1
 10
41.401393
 20
67.226692
 30
0.0
 10
41.120089
 20
67.507997
 30
0.0
 10
40.738558
 20
67.666032
 30
0.0
 10
40.340733
 20
67.666032
 30
0.0
  0
LWPOLYLINE
  5
12a
100
AcDbEntity
  8
Layer_1
 62
1
100
AcDbPolyline
 90
1
 70
1
 10
90.768246
 20
66.844232
 30
0.0
  0
SPLINE
  5
12b
100
AcDbEntity
  8
Layer_1
 62
1
100
AcDbSpline
 70
8
 71
3
 72
8
 73
4
 74
0
 40
0
 40
0
 40
0
 40
0
 40
1
 40
1
 40
1
 40
1
 10
59.254719
 20
31.567407
 30
0.0
 10
58.648026
 20
31.567407
 30
0.0
 10
58.101071
 20
31.201944
 30
0.0
 10
57.868900
 20
30.641432
 30
0.0
  0
SPLINE
  5
12c
100
AcDbEntity
  8
Layer_1
 62
1
100
AcDbSpline
 70
8
 71
3
 72
8
 73
4
 74
0
 40
0
 40
0
 40
0
 40
0
 40
1
 40
1
 40
1
 40
1
 10
57.868900
 20
30.641432
 30
0.0
 10
57.636728
 20
30.080921
 30
0.0
 10
57.765062
 20
29.435744
 30
0.0
 10
58.194059
 20
29.006747
 30
0.0
  0
SPLINE
  5
12d
100
AcDbEntity
  8
Layer_1
 62
1
100
AcDbSpline
 70
8
 71
3
 72
8
 73
4
 74
0
 40
0
 40
0
 40
0
 40
0
 40
1
 40
1
 40
1
 40
1
 10
58.194059
 20
29.006747
 30
0.0
 10
58.623056
 20
28.577750
 30
0.0
 10
59.268233
 20
28.449416
 30
0.0
 10
59.828744
 20
28.681588
 30
0.0
  0
SPLINE
  5
12e
100
AcDbEntity
  8
Layer_1
 62
1
100
AcDbSpline
 70
8
 71
3
 72
8
 73
4
 74
0
 40
0
 40
0
 40
0
 40
0
 40
1
 40
1
 40
1
 40
1
 10
59.828744
 20
28.681588
 30
0.0
 10
60.389256
 20
28.913759
 30
0.0
 10
60.754719
 20
29.460714
 30
0.0
 10
60.754719
 20
30.067407
 30
0.0
  0
SPLINE
  5
12f
100
AcDbEntity
  8
Layer_1
 62
1
100
AcDbSpline
 70
8
 71
3
 72
8
 73
4
 74
0
 40
0
 40
0
 40
0
 40
0
 40
1
 40
1
 40
1
 40
1
 10
60.754719
 20
30.067407
 30
0.0
 10
60.754719
 20
30.465232
 30
0.0
 10
60.596684
 20
30.846763
 30
0.0
 10
60.315379
 20
31.128067
 30
0.0
  0
SPLINE
  5
130
100
AcDbEntity
  8
Layer_1
 62
1
100
AcDbSpline
 70
8
 71
3
 72
8
 73
4
 74
0
 40
0
 40
0
 40
0
 40
0
 40
1
 40
1
 40
1
 40
1
 10
60.315379
 20
31.128067
 30
0.0
 10
60.034075
 20
31.409372
 30
0.0
 10
59.652544
 20
31.567407
 30
0.0
 10
59.254719
 20
31.567407
 30
0.0
  0
LWPOLYLINE
  5
131
100
AcDbEntity
  8
Layer_1
 62
1
100
AcDbPolyline
 90
1
 70
1
 10
40.340733
 20
67.666032
 30
0.0
  0
SPLINE
  5
132
100
AcDbEntity
  8
Layer_1
 62
1
100
AcDbSpline
 70
8
 71
3
 72
8
 73
4
 74
0
 40
0
 40
0
 40
0
 40
0
 40
1
 40
1
 40
1
 40
1
 10
21.458050
 20
31.501260
 30
0.0
 10
20.851357
 20
31.501260
 30
0.0
 10
20.304402
 20
31.135797
 30
0.0
 10
20.072231
 20
30.575285
 30
0.0
  0
SPLINE
  5
133
100
AcDbEntity
  8
Layer_1
 62
1
100
AcDbSpline
 70
8
 71
3
 72
8
 73
4
 74
0
 40
0
 40
0
 40
0
 40
0
 40
1
 40
1
 40
1
 40
1
 10
20.072231
 20
30.575285
 30
0.0
 10
19.840059
 20
30.014774
 30
0.0
 10
19.968393
 20
29.369597
 30
0.0
 10
20.397390
 20
28.940600
 30
0.0
  0
SPLINE
  5
134
100
AcDbEntity
  8
Layer_1
 62
1
100
AcDbSpline
 70
8
 71
3
 72
8
 73
4
 74
0
 40
0
 40
0
 40
0
 40
0
 40
1
 40
1
 40
1
 40
1
 10
20.397390
 20
28.940600
 30
0.0
 10
20.826387
 20
28.511603
 30
0.0
 10
21.471564
 20
28.383269
 30
0.0
 10
22.032075
 20
28.615441
 30
0.0
  0
SPLINE
  5
135
100
AcDbEntity
  8
Layer_1
 62
1
100
AcDbSpline
 70
8
 71
3
 72
8
 73
4
 74
0
 40
0
 40
0
 40
0
 40
0
 40
1
 40
1
 40
1
 40
1
 10
22.032075
 20
28.615441
 30
0.0
 10
22.592587
 20
28.847612
 30
0.0
 10
22.958050
 20
29.394567
 30
0.0
 10
22.958050
 20
30.001260
 30
0.0
  0
SPLINE
  5
136
100
AcDbEntity
  8
Layer_1
 62
1
100
AcDbSpline
 70
8
 71
3
 72
8
 73
4
 74
0
 40
0
 40
0
 40
0
 40
0
 40
1
 40
1
 40
1
 40
1
 10
22.958050
 20
30.001260
 30
0.0
 10
22.958050
 20
30.399085
 30
0.0
 10
22.800015
 20
30.780616
 30
0.0
 10
22.518710
 20
31.061920
 30
0.0
  0
SPLINE
  5
137
100
AcDbEntity
  8
Layer_1
 62
1
100
AcDbSpline
 70
8
 71
3
 72
8
 73
4
 74
0
 40
0
 40
0
 40
0
 40
0
 40
1
 40
1
 40
1
 40
1
 10
22.518710
 20
31.061920
 30
0.0
 10
22.237406
 20
31.343225
 30
0.0
 10
21.855875
 20
31.501260
 30
0.0
 10
21.458050
 20
31.501260
 30
0.0
  0
LWPOLYLINE
  5
138
100
AcDbEntity
  8
Layer_1
 62
1
100
AcDbPolyline
 90
1
 70
1
 10
59.254719
 20
31.567407
 30
0.0
  0
SPLINE
  5
139
100
AcDbEntity
  8
Layer_1
 62
1
100
AcDbSpline
 70
8
 71
3
 72
8
 73
4
 74
0
 40
0
 40
0
 40
0
 40
0
 40
1
 40
1
 40
1
 40
1
 10
210.366740
 20
67.666032
 30
0.0
 10
209.760047
 20
67.666032
 30
0.0
 10
209.213092
 20
67.300569
 30
0.0
 10
208.980921
 20
66.740057
 30
0.0
  0
SPLINE
  5
13a
100
AcDbEntity
  8
Layer_1
 62
1
100
AcDbSpline
 70
8
 71
3
 72
8
 73
4
 74
0
 40
0
 40
0
 40
0
 40
0
 40
1
 40
1
 40
1
 40
1
 10
208.980921
 20
66.740057
 30
0.0
 10
208.748749
 20
66.179546
 30
0.0
 10
208.877083
 20
65.534369
 30
0.0
 10
209.306080
 20
65.105372
 30
0.0
  0
SPLINE
  5
13b
100
AcDbEntity
  8
Layer_1
 62
1
100
AcDbSpline
 70
8
 71
3
 72
8
 73
4
 74
0
 40
0
 40
0
 40
0
 40
0
 40
1
 40
1
 40
1
 40
1
 10
209.306080
 20
65.105372
 30
0.0
 10
209.735077
 20
64.676375
 30
0.0
 10
210.380254
 20
64.548041
 30
0.0
 10
210.940765
 20
64.780213
 30
0.0
  0
SPLINE
  5
13c
100
AcDbEntity
  8
Layer_1
 62
1
100
AcDbSpline
 70
8
 71
3
 72
8
 73
4
 74
0
 40
0
 40
0
 40
0
 40
0
 40
1
 40
1
 40
1
 40
1
 10
210.940765
 20
64.780213
 30
0.0
 10
211.501277
 20
65.012384
 30
0.0
 10
211.866740
 20
65.559339
 30
0.0
 10
211.866740
 20
66.166032
 30
0.0
  0
SPLINE
  5
13d
100
AcDbEntity
  8
Layer_1
 62
1
100
AcDbSpline
 70
8
 71
3
 72
8
 73
4
 74
0
 40
0
 40
0
 40
0
 40
0
 40
1
 40
1
 40
1
 40
1
 10
211.866740
 20
66.166032
 30
0.0
 10
211.866740
 20
66.563857
 30
0.0
 10
211.708705
 20
66.945388
 30
0.0
 10
211.427400
 20
67.226692
 30
0.0
  0
SPLINE
  5
13e
100
AcDbEntity
  8
Layer_1
 62
1
100
AcDbSpline
 70
8
 71
3
 72
8
 73
4
 74
0
 40
0
 40
0
 40
0
 40
0
 40
1
 40
1
 40
1
 40
1
 10
211.427400
 20
67.226692
 30
0.0
 10
211.146096
 20
67.507997
 30
0.0
 10
210.764565
 20
67.666032
 30
0.0
 10
210.366740
 20
67.666032
 30
0.0
  0
LWPOLYLINE
  5
13f
100
AcDbEntity
  8
Layer_1
 62
1
100
AcDbPolyline
 90
1
 70
1
 10
21.458050
 20
31.501260
 30
0.0
  0
SPLINE
  5
140
100
AcDbEntity
  8
Layer_1
 62
1
100
AcDbSpline
 70
8
 71
3
 72
8
 73
4
 74
0
 40
0
 40
0
 40
0
 40
0
 40
1
 40
1
 40
1
 40
1
 10
229.280730
 20
31.567407
 30
0.0
 10
228.674037
 20
31.567407
 30
0.0
 10
228.127082
 20
31.201944
 30
0.0
 10
227.894911
 20
30.641432
 30
0.0
  0
SPLINE
  5
141
100
AcDbEntity
  8
Layer_1
 62
1
100
AcDbSpline
 70
8
 71
3
 72
8
 73
4
 74
0
 40
0
 40
0
 40
0
 40
0
 40
1
 40
1
 40
1
 40
1
 10
227.894911
 20
30.641432
 30
0.0
 10
227.662739
 20
30.080921
 30
0.0
 10
227.791073
 20
29.435744
 30
0.0
 10
228.220070
 20
29.006747
 30
0.0
  0
SPLINE
  5
142
100
AcDbEntity
  8
Layer_1
 62
1
100
AcDbSpline
 70
8
 71
3
 72
8
 73
4
 74
0
 40
0
 40
0
 40
0
 40
0
 40
1
 40
1
 40
1
 40
1
 10
228.220070
 20
29.006747
 30
0.0
 10
228.649067
 20
28.577750
 30
0.0
 10
229.294244
 20
28.449416
 30
0.0
 10
229.854755
 20
28.681588
 30
0.0
  0
SPLINE
  5
143
100
AcDbEntity
  8
Layer_1
 62
1
100
AcDbSpline
 70
8
 71
3
 72
8
 73
4
 74
0
 40
0
 40
0
 40
0
 40
0
 40
1
 40
1
 40
1
 40
1
 10
229.854755
 20
28.681588
 30
0.0
 10
230.415267
 20
28.913759
 30
0.0
 10
230.780730
 20
29.460714
 30
0.0
 10
230.780730
 20
30.067407
 30
0.0
  0
SPLINE
  5
144
100
AcDbEntity
  8
Layer_1
 62
1
100
AcDbSpline
 70
8
 71
3
 72
8
 73
4
 74
0
 40
0
 40
0
 40
0
 40
0
 40
1
 40
1
 40
1
 40
1
 10
230.780730
 20
30.067407
 30
0.0
 10
230.780730
 20
30.465232
 30
0.0
 10
230.622695
 20
30.846763
 30
0.0
 10
230.341390
 20
31.128067
 30
0.0
  0
SPLINE
  5
145
100
AcDbEntity
  8
Layer_1
 62
1
100
AcDbSpline
 70
8
 71
3
 72
8
 73
4
 74
0
 40
0
 40
0
 40
0
 40
0
 40
1
 40
1
 40
1
 40
1
 10
230.341390
 20
31.128067
 30
0.0
 10
230.060086
 20
31.409372
 30
0.0
 10
229.678555
 20
31.567407
 30
0.0
 10
229.280730
 20
31.567407
 30
0.0
  0
LWPOLYLINE
  5
146
100
AcDbEntity
  8
Layer_1
 62
1
100
AcDbPolyline
 90
1
 70
1
 10
210.366740
 20
67.666032
 30
0.0
  0
SPLINE
  5
147
100
AcDbEntity
  8
Layer_1
 62
1
100
AcDbSpline
 70
8
 71
3
 72
8
 73
4
 74
0
 40
0
 40
0
 40
0
 40
0
 40
1
 40
1
 40
1
 40
1
 10
191.484050
 20
31.501260
 30
0.0
 10
190.877357
 20
31.501260
 30
0.0
 10
190.330402
 20
31.135797
 30
0.0
 10
190.098231
 20
30.575285
 30
0.0
  0
SPLINE
  5
148
100
AcDbEntity
  8
Layer_1
 62
1
100
AcDbSpline
 70
8
 71
3
 72
8
 73
4
 74
0
 40
0
 40
0
 40
0
 40
0
 40
1
 40
1
 40
1
 40
1
 10
190.098231
 20
30.575285
 30
0.0
 10
189.866059
 20
30.014774
 30
0.0
 10
189.994393
 20
29.369597
 30
0.0
 10
190.423390
 20
28.940600
 30
0.0
  0
SPLINE
  5
149
100
AcDbEntity
  8
Layer_1
 62
1
100
AcDbSpline
 70
8
 71
3
 72
8
 73
4
 74
0
 40
0
 40
0
 40
0
 40
0
 40
1
 40
1
 40
1
 40
1
 10
190.423390
 20
28.940600
 30
0.0
 10
190.852387
 20
28.511603
 30
0.0
 10
191.497564
 20
28.383269
 30
0.0
 10
192.058075
 20
28.615441
 30
0.0
  0
SPLINE
  5
14a
100
AcDbEntity
  8
Layer_1
 62
1
100
AcDbSpline
 70
8
 71
3
 72
8
 73
4
 74
0
 40
0
 40
0
 40
0
 40
0
 40
1
 40
1
 40
1
 40
1
 10
192.058075
 20
28.615441
 30
0.0
 10
192.618587
 20
28.847612
 30
0.0
 10
192.984050
 20
29.394567
 30
0.0
 10
192.984050
 20
30.001260
 30
0.0
  0
SPLINE
  5
14b
100
AcDbEntity
  8
Layer_1
 62
1
100
AcDbSpline
 70
8
 71
3
 72
8
 73
4
 74
0
 40
0
 40
0
 40
0
 40
0
 40
1
 40
1
 40
1
 40
1
 10
192.984050
 20
30.001260
 30
0.0
 10
192.984050
 20
30.399085
 30
0.0
 10
192.826015
 20
30.780616
 30
0.0
 10
192.544710
 20
31.061920
 30
0.0
  0
SPLINE
  5
14c
100
AcDbEntity
  8
Layer_1
 62
1
100
AcDbSpline
 70
8
 71
3
 72
8
 73
4
 74
0
 40
0
 40
0
 40
0
 40
0
 40
1
 40
1
 40
1
 40
1
 10
192.544710
 20
31.061920
 30
0.0
 10
192.263406
 20
31.343225
 30
0.0
 10
191.881875
 20
31.501260
 30
0.0
 10
191.484050
 20
31.501260
 30
0.0
  0
LWPOLYLINE
  5
14d
100
AcDbEntity
  8
Layer_1
 62
1
100
AcDbPolyline
 90
1
 70
1
 10
229.280730
 20
31.567407
 30
0.0
  0
SPLINE
  5
14e
100
AcDbEntity
  8
Layer_1
 62
1
100
AcDbSpline
 70
8
 71
3
 72
8
 73
4
 74
0
 40
0
 40
0
 40
0
 40
0
 40
1
 40
1
 40
1
 40
1
 10
73.962139
 20
46.749871
 30
0.0
 10
72.546521
 20
46.749871
 30
0.0
 10
71.270294
 20
45.897123
 30
0.0
 10
70.728561
 20
44.589263
 30
0.0
  0
SPLINE
  5
14f
100
AcDbEntity
  8
Layer_1
 62
1
100
AcDbSpline
 70
8
 71
3
 72
8
 73
4
 74
0
 40
0
 40
0
 40
0
 40
0
 40
1
 40
1
 40
1
 40
1
 10
70.728561
 20
44.589263
 30
0.0
 10
70.186827
 20
43.281403
 30
0.0
 10
70.486272
 20
41.775990
 30
0.0
 10
71.487265
 20
40.774997
 30
0.0
  0
SPLINE
  5
150
100
AcDbEntity
  8
Layer_1
 62
1
100
AcDbSpline
 70
8
 71
3
 72
8
 73
4
 74
0
 40
0
 40
0
 40
0
 40
0
 40
1
 40
1
 40
1
 40
1
 10
71.487265
 20
40.774997
 30
0.0
 10
72.488258
 20
39.774004
 30
0.0
 10
73.993671
 20
39.474559
 30
0.0
 10
75.301531
 20
40.016293
 30
0.0
  0
SPLINE
  5
151
100
AcDbEntity
  8
Layer_1
 62
1
100
AcDbSpline
 70
8
 71
3
 72
8
 73
4
 74
0
 40
0
 40
0
 40
0
 40
0
 40
1
 40
1
 40
1
 40
1
 10
75.301531
 20
40.016293
 30
0.0
 10
76.609391
 20
40.558026
 30
0.0
 10
77.462139
 20
41.834253
 30
0.0
 10
77.462139
 20
43.249871
 30
0.0
  0
SPLINE
  5
152
100
AcDbEntity
  8
Layer_1
 62
1
100
AcDbSpline
 70
8
 71
3
 72
8
 73
4
 74
0
 40
0
 40
0
 40
0
 40
0
 40
1
 40
1
 40
1
 40
1
 10
77.462139
 20
43.249871
 30
0.0
 10
77.462139
 20
44.178129
 30
0.0
 10
77.093390
 20
45.068367
 30
0.0
 10
76.437013
 20
45.724745
 30
0.0
  0
SPLINE
  5
153
100
AcDbEntity
  8
Layer_1
 62
1
100
AcDbSpline
 70
8
 71
3
 72
8
 73
4
 74
0
 40
0
 40
0
 40
0
 40
0
 40
1
 40
1
 40
1
 40
1
 10
76.437013
 20
45.724745
 30
0.0
 10
75.780635
 20
46.381122
 30
0.0
 10
74.890397
 20
46.749871
 30
0.0
 10
73.962139
 20
46.749871
 30
0.0
  0
LWPOLYLINE
  5
154
100
AcDbEntity
  8
Layer_1
 62
1
100
AcDbPolyline
 90
1
 70
1
 10
191.484050
 20
31.501260
 30
0.0
  0
SPLINE
  5
155
100
AcDbEntity
  8
Layer_1
 62
1
100
AcDbSpline
 70
8
 71
3
 72
8
 73
4
 74
0
 40
0
 40
0
 40
0
 40
0
 40
1
 40
1
 40
1
 40
1
 10
176.635680
 20
46.749871
 30
0.0
 10
175.220062
 20
46.749871
 30
0.0
 10
173.943835
 20
45.897123
 30
0.0
 10
173.402102
 20
44.589263
 30
0.0
  0
SPLINE
  5
156
100
AcDbEntity
  8
Layer_1
 62
1
100
AcDbSpline
 70
8
 71
3
 72
8
 73
4
 74
0
 40
0
 40
0
 40
0
 40
0
 40
1
 40
1
 40
1
 40
1
 10
173.402102
 20
44.589263
 30
0.0
 10
172.860368
 20
43.281403
 30
0.0
 10
173.159813
 20
41.775990
 30
0.0
 10
174.160806
 20
40.774997
 30
0.0
  0
SPLINE
  5
157
100
AcDbEntity
  8
Layer_1
 62
1
100
AcDbSpline
 70
8
 71
3
 72
8
 73
4
 74
0
 40
0
 40
0
 40
0
 40
0
 40
1
 40
1
 40
1
 40
1
 10
174.160806
 20
40.774997
 30
0.0
 10
175.161799
 20
39.774004
 30
0.0
 10
176.667212
 20
39.474559
 30
0.0
 10
177.975072
 20
40.016293
 30
0.0
  0
SPLINE
  5
158
100
AcDbEntity
  8
Layer_1
 62
1
100
AcDbSpline
 70
8
 71
3
 72
8
 73
4
 74
0
 40
0
 40
0
 40
0
 40
0
 40
1
 40
1
 40
1
 40
1
 10
177.975072
 20
40.016293
 30
0.0
 10
179.282932
 20
40.558026
 30
0.0
 10
180.135680
 20
41.834253
 30
0.0
 10
180.135680
 20
43.249871
 30
0.0
  0
SPLINE
  5
159
100
AcDbEntity
  8
Layer_1
 62
1
100
AcDbSpline
 70
8
 71
3
 72
8
 73
4
 74
0
 40
0
 40
0
 40
0
 40
0
 40
1
 40
1
 40
1
 40
1
 10
180.135680
 20
43.249871
 30
0.0
 10
180.135680
 20
44.178129
 30
0.0
 10
179.766931
 20
45.068367
 30
0.0
 10
179.110554
 20
45.724745
 30
0.0
  0
SPLINE
  5
15a
100
AcDbEntity
  8
Layer_1
 62
1
100
AcDbSpline
 70
8
 71
3
 72
8
 73
4
 74
0
 40
0
 40
0
 40
0
 40
0
 40
1
 40
1
 40
1
 40
1
 10
179.110554
 20
45.724745
 30
0.0
 10
178.454176
 20
46.381122
 30
0.0
 10
177.563938
 20
46.749871
 30
0.0
 10
176.635680
 20
46.749871
 30
0.0
  0
LWPOLYLINE
  5
15b
100
AcDbEntity
  8
Layer_1
 62
1
100
AcDbPolyline
 90
1
 70
1
 10
73.962139
 20
46.749871
 30
0.0
  0
SPLINE
  5
15c
100
AcDbEntity
  8
Layer_1
 62
1
100
AcDbSpline
 70
8
 71
3
 72
8
 73
4
 74
0
 40
0
 40
0
 40
0
 40
0
 40
1
 40
1
 40
1
 40
1
 10
90.768246
 20
22.644212
 30
0.0
 10
90.161553
 20
22.644212
 30
0.0
 10
89.614598
 20
22.278749
 30
0.0
 10
89.382427
 20
21.718237
 30
0.0
  0
SPLINE
  5
15d
100
AcDbEntity
  8
Layer_1
 62
1
100
AcDbSpline
 70
8
 71
3
 72
8
 73
4
 74
0
 40
0
 40
0
 40
0
 40
0
 40
1
 40
1
 40
1
 40
1
 10
89.382427
 20
21.718237
 30
0.0
 10
89.150255
 20
21.157726
 30
0.0
 10
89.278589
 20
20.512549
 30
0.0
 10
89.707586
 20
20.083552
 30
0.0
  0
SPLINE
  5
15e
100
AcDbEntity
  8
Layer_1
 62
1
100
AcDbSpline
 70
8
 71
3
 72
8
 73
4
 74
0
 40
0
 40
0
 40
0
 40
0
 40
1
 40
1
 40
1
 40
1
 10
89.707586
 20
20.083552
 30
0.0
 10
90.136583
 20
19.654555
 30
0.0
 10
90.781760
 20
19.526221
 30
0.0
 10
91.342271
 20
19.758393
 30
0.0
  0
SPLINE
  5
15f
100
AcDbEntity
  8
Layer_1
 62
1
100
AcDbSpline
 70
8
 71
3
 72
8
 73
4
 74
0
 40
0
 40
0
 40
0
 40
0
 40
1
 40
1
 40
1
 40
1
 10
91.342271
 20
19.758393
 30
0.0
 10
91.902783
 20
19.990564
 30
0.0
 10
92.268246
 20
20.537519
 30
0.0
 10
92.268246
 20
21.144212
 30
0.0
  0
SPLINE
  5
160
100
AcDbEntity
  8
Layer_1
 62
1
100
AcDbSpline
 70
8
 71
3
 72
8
 73
4
 74
0
 40
0
 40
0
 40
0
 40
0
 40
1
 40
1
 40
1
 40
1
 10
92.268246
 20
21.144212
 30
0.0
 10
92.268246
 20
21.542037
 30
0.0
 10
92.110211
 20
21.923568
 30
0.0
 10
91.828906
 20
22.204872
 30
0.0
  0
SPLINE
  5
161
100
AcDbEntity
  8
Layer_1
 62
1
100
AcDbSpline
 70
8
 71
3
 72
8
 73
4
 74
0
 40
0
 40
0
 40
0
 40
0
 40
1
 40
1
 40
1
 40
1
 10
91.828906
 20
22.204872
 30
0.0
 10
91.547602
 20
22.486177
 30
0.0
 10
91.166071
 20
22.644212
 30
0.0
 10
90.768246
 20
22.644212
 30
0.0
  0
LWPOLYLINE
  5
162
100
AcDbEntity
  8
Layer_1
 62
1
100
AcDbPolyline
 90
1
 70
1
 10
176.635680
 20
46.749871
 30
0.0
  0
LWPOLYLINE
  5
163
100
AcDbEntity
  8
Layer_1
 62
1
100
AcDbPolyline
 90
1
 70
1
 10
90.768246
 20
22.644212
 30
0.0
  0
ENDSEC
  0
SECTION
  2
OBJECTS
  0
DICTIONARY
  5
C
330
0
100
AcDbDictionary
  3
ACAD_GROUP
350
D
  3
ACAD_MLINESTYLE
350
17
  0
DICTIONARY
  5
D
330
C
100
AcDbDictionary
  0
DICTIONARY
  5
1A
330
C
100
AcDbDictionary
  0
DICTIONARY
  5
17
330
C
100
AcDbDictionary
  3
STANDARD
350
18
  0
DICTIONARY
  5
19
330
C
100
AcDbDictionary
  0
ENDSEC
  0
EOF
