999
"DXF R12 Output" (www.mydxf.blogspot.com)
 0 
SECTION
 2 
HEADER
 9 
$ACADVER
 1 
AC1009
 9 
$EXTMIN
 10 
 0 
 20 
 0 
 9 
$EXTMAX
 10 
 8.5 
 20 
 11 
 0 
ENDSEC
 0 
SECTION
 2 
ENTITIES
0
LINE
8
Layer 1
10
96.748623
20
64.749844
11
153.748623
21
64.749844
0
LINE
8
Layer 1
10
153.748623
20
64.749844
11
153.748623
21
21.749844
0
LINE
8
Layer 1
10
153.748623
20
21.749844
11
96.748623
21
21.749844
0
LINE
8
Layer 1
10
96.748623
20
21.749844
11
96.748623
21
64.749844
0
LINE
8
Layer 1
10
210.248010
20
83.249822
11
200.748010
21
83.249822
0
LINE
8
Layer 1
10
200.748010
20
83.249822
11
200.748010
21
86.249820
0
LINE
8
Layer 1
10
200.748010
20
86.249820
11
194.748010
21
86.249820
0
LINE
8
Layer 1
10
194.748010
20
86.249820
11
194.748010
21
83.249822
0
LINE
8
Layer 1
10
194.748010
20
83.249822
11
188.748010
21
83.249822
0
LINE
8
Layer 1
10
188.748010
20
83.249822
11
188.748010
21
86.249820
0
LINE
8
Layer 1
10
188.748010
20
86.249820
11
182.748010
21
86.249820
0
LINE
8
Layer 1
10
182.748010
20
86.249820
11
182.748010
21
83.249822
0
LINE
8
Layer 1
10
182.748010
20
83.249822
11
176.748010
21
83.249822
0
LINE
8
Layer 1
10
176.748010
20
83.249822
11
176.748010
21
86.249820
0
LINE
8
Layer 1
10
176.748010
20
86.249820
11
170.748010
21
86.249820
0
LINE
8
Layer 1
10
170.748010
20
86.249820
11
170.748010
21
83.249822
0
LINE
8
Layer 1
10
170.748010
20
83.249822
11
164.748010
21
83.249822
0
LINE
8
Layer 1
10
164.748010
20
83.249822
11
164.748010
21
86.249820
0
LINE
8
Layer 1
10
164.748010
20
86.249820
11
158.748010
21
86.249820
0
LINE
8
Layer 1
10
158.748010
20
86.249820
11
158.748010
21
83.249822
0
LINE
8
Layer 1
10
158.748010
20
83.249822
11
152.748010
21
83.249822
0
LINE
8
Layer 1
10
152.748010
20
83.249822
11
152.748010
21
86.249820
0
LINE
8
Layer 1
10
152.748010
20
86.249820
11
146.748010
21
86.249820
0
LINE
8
Layer 1
10
146.748010
20
86.249820
11
146.748010
21
83.249822
0
LINE
8
Layer 1
10
146.748010
20
83.249822
11
140.748010
21
83.249822
0
LINE
8
Layer 1
10
140.748010
20
83.249822
11
140.748010
21
86.249820
0
LINE
8
Layer 1
10
140.748010
20
86.249820
11
134.748010
21
86.249820
0
LINE
8
Layer 1
10
134.748010
20
86.249820
11
134.748010
21
83.249822
0
LINE
8
Layer 1
10
134.748010
20
83.249822
11
128.748010
21
83.249822
0
LINE
8
Layer 1
10
128.748010
20
83.249822
11
125.248010
21
83.249822
0
LINE
8
Layer 1
10
125.248010
20
83.249822
11
115.748010
21
83.249822
0
LINE
8
Layer 1
10
115.748010
20
83.249822
11
115.748010
21
86.249820
0
LINE
8
Layer 1
10
115.748010
20
86.249820
11
109.748010
21
86.249820
0
LINE
8
Layer 1
10
109.748010
20
86.249820
11
109.748010
21
83.249822
0
LINE
8
Layer 1
10
109.748010
20
83.249822
11
103.748010
21
83.249822
0
LINE
8
Layer 1
10
103.748010
20
83.249822
11
103.748010
21
86.249820
0
LINE
8
Layer 1
10
103.748010
20
86.249820
11
97.748016
21
86.249820
0
LINE
8
Layer 1
10
97.748016
20
86.249820
11
97.748016
21
83.249822
0
LINE
8
Layer 1
10
97.748016
20
83.249822
11
91.748062
21
83.249822
0
LINE
8
Layer 1
10
91.748062
20
83.249822
11
91.748062
21
86.249820
0
LINE
8
Layer 1
10
91.748062
20
86.249820
11
85.748095
21
86.249820
0
LINE
8
Layer 1
10
85.748095
20
86.249820
11
85.748095
21
83.249822
0
LINE
8
Layer 1
10
85.748095
20
83.249822
11
79.748110
21
83.249822
0
LINE
8
Layer 1
10
79.748110
20
83.249822
11
79.748110
21
86.249820
0
LINE
8
Layer 1
10
79.748110
20
86.249820
11
73.748110
21
86.249820
0
LINE
8
Layer 1
10
73.748110
20
86.249820
11
73.748110
21
83.249822
0
LINE
8
Layer 1
10
73.748110
20
83.249822
11
67.748110
21
83.249822
0
LINE
8
Layer 1
10
67.748110
20
83.249822
11
67.748110
21
86.249820
0
LINE
8
Layer 1
10
67.748110
20
86.249820
11
61.748110
21
86.249820
0
LINE
8
Layer 1
10
61.748110
20
86.249820
11
61.748110
21
83.249822
0
LINE
8
Layer 1
10
61.748110
20
83.249822
11
55.748110
21
83.249822
0
LINE
8
Layer 1
10
55.748110
20
83.249822
11
55.748110
21
86.249820
0
LINE
8
Layer 1
10
55.748110
20
86.249820
11
49.748110
21
86.249820
0
LINE
8
Layer 1
10
49.748110
20
86.249820
11
49.748110
21
83.249822
0
LINE
8
Layer 1
10
49.748110
20
83.249822
11
43.748110
21
83.249822
0
LINE
8
Layer 1
10
43.748110
20
83.249822
11
40.248110
21
83.249822
0
LINE
8
Layer 1
10
40.248110
20
83.249822
11
37.750110
21
83.171822
0
LINE
8
Layer 1
10
37.750110
20
83.171822
11
35.261110
21
82.937822
0
LINE
8
Layer 1
10
35.261110
20
82.937822
11
32.792110
21
82.548822
0
LINE
8
Layer 1
10
32.792110
20
82.548822
11
30.352110
21
82.005823
0
LINE
8
Layer 1
10
30.352110
20
82.005823
11
27.951110
21
81.312823
0
LINE
8
Layer 1
10
27.951110
20
81.312823
11
25.597110
21
80.469824
0
LINE
8
Layer 1
10
25.597110
20
80.469824
11
23.301110
21
79.482824
0
LINE
8
Layer 1
10
23.301110
20
79.482824
11
21.071110
21
78.352825
0
LINE
8
Layer 1
10
21.071110
20
78.352825
11
18.916110
21
77.086825
0
LINE
8
Layer 1
10
18.916110
20
77.086825
11
16.844110
21
75.688828
0
LINE
8
Layer 1
10
16.844110
20
75.688828
11
14.864110
21
74.162828
0
LINE
8
Layer 1
10
14.864110
20
74.162828
11
12.983110
21
72.517828
0
LINE
8
Layer 1
10
12.983110
20
72.517828
11
11.208110
21
70.756828
0
LINE
8
Layer 1
10
11.208110
20
70.756828
11
9.547109
21
68.889828
0
LINE
8
Layer 1
10
9.547109
20
68.889828
11
8.005110
21
66.921828
0
LINE
8
Layer 1
10
8.005110
20
66.921828
11
6.590110
21
64.861828
0
LINE
8
Layer 1
10
6.590110
20
64.861828
11
5.305111
21
62.717828
0
LINE
8
Layer 1
10
5.305111
20
62.717828
11
4.158112
21
60.496828
0
LINE
8
Layer 1
10
4.158112
20
60.496828
11
3.151112
21
58.208828
0
LINE
8
Layer 1
10
3.151112
20
58.208828
11
2.289113
21
55.862828
0
LINE
8
Layer 1
10
2.289113
20
55.862828
11
1.575113
21
53.466828
0
LINE
8
Layer 1
10
1.575113
20
53.466828
11
1.013114
21
51.031828
0
LINE
8
Layer 1
10
1.013114
20
51.031828
11
0.603114
21
48.565828
0
LINE
8
Layer 1
10
0.603114
20
48.565828
11
0.349114
21
46.078828
0
LINE
8
Layer 1
10
0.349114
20
46.078828
11
0.250114
21
43.581828
0
LINE
8
Layer 1
10
0.250114
20
43.581828
11
0.307114
21
41.082828
0
LINE
8
Layer 1
10
0.307114
20
41.082828
11
0.520114
21
38.591828
0
LINE
8
Layer 1
10
0.520114
20
38.591828
11
0.889114
21
36.119828
0
LINE
8
Layer 1
10
0.889114
20
36.119828
11
1.411113
21
33.675828
0
LINE
8
Layer 1
10
1.411113
20
33.675828
11
2.085113
21
31.268828
0
LINE
8
Layer 1
10
2.085113
20
31.268828
11
2.908112
21
28.907828
0
LINE
8
Layer 1
10
2.908112
20
28.907828
11
3.876112
21
26.603828
0
LINE
8
Layer 1
10
3.876112
20
26.603828
11
4.987111
21
24.364833
0
LINE
8
Layer 1
10
4.987111
20
24.364833
11
6.236111
21
22.198845
0
LINE
8
Layer 1
10
6.236111
20
22.198845
11
7.617110
21
20.115857
0
LINE
8
Layer 1
10
7.617110
20
20.115857
11
9.125109
21
18.122869
0
LINE
8
Layer 1
10
9.125109
20
18.122869
11
10.756110
21
16.227878
0
LINE
8
Layer 1
10
10.756110
20
16.227878
11
12.501110
21
14.438890
0
LINE
8
Layer 1
10
12.501110
20
14.438890
11
14.355110
21
12.761899
0
LINE
8
Layer 1
10
14.355110
20
12.761899
11
16.309110
21
11.203908
0
LINE
8
Layer 1
10
16.309110
20
11.203908
11
18.358110
21
9.771917
0
LINE
8
Layer 1
10
18.358110
20
9.771917
11
20.492110
21
8.469923
0
LINE
8
Layer 1
10
20.492110
20
8.469923
11
22.702110
21
7.303929
0
LINE
8
Layer 1
10
22.702110
20
7.303929
11
24.982110
21
6.277935
0
LINE
8
Layer 1
10
24.982110
20
6.277935
11
27.321110
21
5.396941
0
LINE
8
Layer 1
10
27.321110
20
5.396941
11
29.711110
21
4.662944
0
LINE
8
Layer 1
10
29.711110
20
4.662944
11
32.141110
21
4.079947
0
LINE
8
Layer 1
10
32.141110
20
4.079947
11
34.604110
21
3.649950
0
LINE
8
Layer 1
10
34.604110
20
3.649950
11
37.088110
21
3.374953
0
LINE
8
Layer 1
10
37.088110
20
3.374953
11
39.585110
21
3.255953
0
LINE
8
Layer 1
10
39.585110
20
3.255953
11
40.248110
21
3.249953
0
LINE
8
Layer 1
10
40.248110
20
3.249953
11
50.248110
21
3.249953
0
LINE
8
Layer 1
10
50.248110
20
3.249953
11
50.248110
21
0.249971
0
LINE
8
Layer 1
10
50.248110
20
0.249971
11
56.248110
21
0.249971
0
LINE
8
Layer 1
10
56.248110
20
0.249971
11
56.248110
21
3.249953
0
LINE
8
Layer 1
10
56.248110
20
3.249953
11
62.248110
21
3.249953
0
LINE
8
Layer 1
10
62.248110
20
3.249953
11
62.248110
21
0.249971
0
LINE
8
Layer 1
10
62.248110
20
0.249971
11
68.248110
21
0.249971
0
LINE
8
Layer 1
10
68.248110
20
0.249971
11
68.248110
21
3.249953
0
LINE
8
Layer 1
10
68.248110
20
3.249953
11
74.248110
21
3.249953
0
LINE
8
Layer 1
10
74.248110
20
3.249953
11
74.248110
21
0.249971
0
LINE
8
Layer 1
10
74.248110
20
0.249971
11
80.248110
21
0.249971
0
LINE
8
Layer 1
10
80.248110
20
0.249971
11
80.248110
21
3.249953
0
LINE
8
Layer 1
10
80.248110
20
3.249953
11
86.248092
21
3.249953
0
LINE
8
Layer 1
10
86.248092
20
3.249953
11
86.248092
21
0.249971
0
LINE
8
Layer 1
10
86.248092
20
0.249971
11
92.248059
21
0.249971
0
LINE
8
Layer 1
10
92.248059
20
0.249971
11
92.248059
21
3.249953
0
LINE
8
Layer 1
10
92.248059
20
3.249953
11
98.248013
21
3.249953
0
LINE
8
Layer 1
10
98.248013
20
3.249953
11
98.248013
21
0.249971
0
LINE
8
Layer 1
10
98.248013
20
0.249971
11
104.248010
21
0.249971
0
LINE
8
Layer 1
10
104.248010
20
0.249971
11
104.248010
21
3.249953
0
LINE
8
Layer 1
10
104.248010
20
3.249953
11
110.248010
21
3.249953
0
LINE
8
Layer 1
10
110.248010
20
3.249953
11
110.248010
21
0.249971
0
LINE
8
Layer 1
10
110.248010
20
0.249971
11
116.248010
21
0.249971
0
LINE
8
Layer 1
10
116.248010
20
0.249971
11
116.248010
21
3.249953
0
LINE
8
Layer 1
10
116.248010
20
3.249953
11
122.248010
21
3.249953
0
LINE
8
Layer 1
10
122.248010
20
3.249953
11
122.248010
21
0.249971
0
LINE
8
Layer 1
10
122.248010
20
0.249971
11
128.248010
21
0.249971
0
LINE
8
Layer 1
10
128.248010
20
0.249971
11
128.248010
21
3.249953
0
LINE
8
Layer 1
10
128.248010
20
3.249953
11
134.248010
21
3.249953
0
LINE
8
Layer 1
10
134.248010
20
3.249953
11
134.248010
21
0.249971
0
LINE
8
Layer 1
10
134.248010
20
0.249971
11
140.248010
21
0.249971
0
LINE
8
Layer 1
10
140.248010
20
0.249971
11
140.248010
21
3.249953
0
LINE
8
Layer 1
10
140.248010
20
3.249953
11
146.248010
21
3.249953
0
LINE
8
Layer 1
10
146.248010
20
3.249953
11
146.248010
21
0.249971
0
LINE
8
Layer 1
10
146.248010
20
0.249971
11
152.248010
21
0.249971
0
LINE
8
Layer 1
10
152.248010
20
0.249971
11
152.248010
21
3.249953
0
LINE
8
Layer 1
10
152.248010
20
3.249953
11
158.248010
21
3.249953
0
LINE
8
Layer 1
10
158.248010
20
3.249953
11
158.248010
21
0.249971
0
LINE
8
Layer 1
10
158.248010
20
0.249971
11
164.248010
21
0.249971
0
LINE
8
Layer 1
10
164.248010
20
0.249971
11
164.248010
21
3.249953
0
LINE
8
Layer 1
10
164.248010
20
3.249953
11
170.248010
21
3.249953
0
LINE
8
Layer 1
10
170.248010
20
3.249953
11
170.248010
21
0.249971
0
LINE
8
Layer 1
10
170.248010
20
0.249971
11
176.248010
21
0.249971
0
LINE
8
Layer 1
10
176.248010
20
0.249971
11
176.248010
21
3.249953
0
LINE
8
Layer 1
10
176.248010
20
3.249953
11
182.248010
21
3.249953
0
LINE
8
Layer 1
10
182.248010
20
3.249953
11
182.248010
21
0.249971
0
LINE
8
Layer 1
10
182.248010
20
0.249971
11
188.248010
21
0.249971
0
LINE
8
Layer 1
10
188.248010
20
0.249971
11
188.248010
21
3.249953
0
LINE
8
Layer 1
10
188.248010
20
3.249953
11
194.248010
21
3.249953
0
LINE
8
Layer 1
10
194.248010
20
3.249953
11
194.248010
21
0.249971
0
LINE
8
Layer 1
10
194.248010
20
0.249971
11
200.248010
21
0.249971
0
LINE
8
Layer 1
10
200.248010
20
0.249971
11
200.248010
21
3.249953
0
LINE
8
Layer 1
10
200.248010
20
3.249953
11
206.248010
21
3.249953
0
LINE
8
Layer 1
10
206.248010
20
3.249953
11
210.248010
21
3.249953
0
LINE
8
Layer 1
10
210.248010
20
3.249953
11
212.747010
21
3.327953
0
LINE
8
Layer 1
10
212.747010
20
3.327953
11
215.235010
21
3.561950
0
LINE
8
Layer 1
10
215.235010
20
3.561950
11
217.705010
21
3.950950
0
LINE
8
Layer 1
10
217.705010
20
3.950950
11
220.145010
21
4.493944
0
LINE
8
Layer 1
10
220.145010
20
4.493944
11
222.546010
21
5.186941
0
LINE
8
Layer 1
10
222.546010
20
5.186941
11
224.899010
21
6.029938
0
LINE
8
Layer 1
10
224.899010
20
6.029938
11
227.195010
21
7.016932
0
LINE
8
Layer 1
10
227.195010
20
7.016932
11
229.425010
21
8.146926
0
LINE
8
Layer 1
10
229.425010
20
8.146926
11
231.580010
21
9.412917
0
LINE
8
Layer 1
10
231.580010
20
9.412917
11
233.652010
21
10.810911
0
LINE
8
Layer 1
10
233.652010
20
10.810911
11
235.633010
21
12.336902
0
LINE
8
Layer 1
10
235.633010
20
12.336902
11
237.514010
21
13.981893
0
LINE
8
Layer 1
10
237.514010
20
13.981893
11
239.289010
21
15.742881
0
LINE
8
Layer 1
10
239.289010
20
15.742881
11
240.950010
21
17.609872
0
LINE
8
Layer 1
10
240.950010
20
17.609872
11
242.492010
21
19.577860
0
LINE
8
Layer 1
10
242.492010
20
19.577860
11
243.907010
21
21.637848
0
LINE
8
Layer 1
10
243.907010
20
21.637848
11
245.191010
21
23.781836
0
LINE
8
Layer 1
10
245.191010
20
23.781836
11
246.339010
21
26.002824
0
LINE
8
Layer 1
10
246.339010
20
26.002824
11
247.346010
21
28.290828
0
LINE
8
Layer 1
10
247.346010
20
28.290828
11
248.208010
21
30.636828
0
LINE
8
Layer 1
10
248.208010
20
30.636828
11
248.921010
21
33.032828
0
LINE
8
Layer 1
10
248.921010
20
33.032828
11
249.484010
21
35.467828
0
LINE
8
Layer 1
10
249.484010
20
35.467828
11
249.894010
21
37.933828
0
LINE
8
Layer 1
10
249.894010
20
37.933828
11
250.148010
21
40.420828
0
LINE
8
Layer 1
10
250.148010
20
40.420828
11
250.247010
21
42.917828
0
LINE
8
Layer 1
10
250.247010
20
42.917828
11
250.190010
21
45.416828
0
LINE
8
Layer 1
10
250.190010
20
45.416828
11
249.976010
21
47.907828
0
LINE
8
Layer 1
10
249.976010
20
47.907828
11
249.608010
21
50.379828
0
LINE
8
Layer 1
10
249.608010
20
50.379828
11
249.086010
21
52.823828
0
LINE
8
Layer 1
10
249.086010
20
52.823828
11
248.412010
21
55.230828
0
LINE
8
Layer 1
10
248.412010
20
55.230828
11
247.589010
21
57.591828
0
LINE
8
Layer 1
10
247.589010
20
57.591828
11
246.620010
21
59.895828
0
LINE
8
Layer 1
10
246.620010
20
59.895828
11
245.510010
21
62.134828
0
LINE
8
Layer 1
10
245.510010
20
62.134828
11
244.261010
21
64.300828
0
LINE
8
Layer 1
10
244.261010
20
64.300828
11
242.880010
21
66.383828
0
LINE
8
Layer 1
10
242.880010
20
66.383828
11
241.371010
21
68.376828
0
LINE
8
Layer 1
10
241.371010
20
68.376828
11
239.741010
21
70.271828
0
LINE
8
Layer 1
10
239.741010
20
70.271828
11
237.996010
21
72.060828
0
LINE
8
Layer 1
10
237.996010
20
72.060828
11
236.142010
21
73.737828
0
LINE
8
Layer 1
10
236.142010
20
73.737828
11
234.187010
21
75.295828
0
LINE
8
Layer 1
10
234.187010
20
75.295828
11
232.139010
21
76.727827
0
LINE
8
Layer 1
10
232.139010
20
76.727827
11
230.005010
21
78.029825
0
LINE
8
Layer 1
10
230.005010
20
78.029825
11
227.794010
21
79.195824
0
LINE
8
Layer 1
10
227.794010
20
79.195824
11
225.515010
21
80.221823
0
LINE
8
Layer 1
10
225.515010
20
80.221823
11
223.176010
21
81.102823
0
LINE
8
Layer 1
10
223.176010
20
81.102823
11
220.786010
21
81.836823
0
LINE
8
Layer 1
10
220.786010
20
81.836823
11
218.356010
21
82.419822
0
LINE
8
Layer 1
10
218.356010
20
82.419822
11
215.893010
21
82.849822
0
LINE
8
Layer 1
10
215.893010
20
82.849822
11
213.409010
21
83.124822
0
LINE
8
Layer 1
10
213.409010
20
83.124822
11
210.912010
21
83.243822
0
LINE
8
Layer 1
10
210.912010
20
83.243822
11
210.248010
21
83.249822
0
LINE
8
Layer 1
10
40.205059
20
61.249844
11
37.514520
21
61.048265
0
LINE
8
Layer 1
10
37.514520
20
61.048265
11
34.927052
21
60.459504
0
LINE
8
Layer 1
10
34.927052
20
60.459504
11
32.478522
21
59.507527
0
LINE
8
Layer 1
10
32.478522
20
59.507527
11
30.204795
21
58.216297
0
LINE
8
Layer 1
10
30.204795
20
58.216297
11
28.141736
21
56.609779
0
LINE
8
Layer 1
10
28.141736
20
56.609779
11
26.325212
21
54.711939
0
LINE
8
Layer 1
10
26.325212
20
54.711939
11
24.791087
21
52.546739
0
LINE
8
Layer 1
10
24.791087
20
52.546739
11
23.575227
21
50.138146
0
LINE
8
Layer 1
10
23.575227
20
50.138146
11
22.731837
21
47.575271
0
LINE
8
Layer 1
10
22.731837
20
47.575271
11
22.285600
21
44.959453
0
LINE
8
Layer 1
10
22.285600
20
44.959453
11
22.228101
21
42.333000
0
LINE
8
Layer 1
10
22.228101
20
42.333000
11
22.550924
21
39.738218
0
LINE
8
Layer 1
10
22.550924
20
39.738218
11
23.245654
21
37.217413
0
LINE
8
Layer 1
10
23.245654
20
37.217413
11
24.303877
21
34.812891
0
LINE
8
Layer 1
10
24.303877
20
34.812891
11
25.717176
21
32.566958
0
LINE
8
Layer 1
10
25.717176
20
32.566958
11
27.477137
21
30.521922
0
LINE
8
Layer 1
10
27.477137
20
30.521922
11
29.522173
21
28.761961
0
LINE
8
Layer 1
10
29.522173
20
28.761961
11
31.768106
21
27.348662
0
LINE
8
Layer 1
10
31.768106
20
27.348662
11
34.172628
21
26.290439
0
LINE
8
Layer 1
10
34.172628
20
26.290439
11
36.693433
21
25.595709
0
LINE
8
Layer 1
10
36.693433
20
25.595709
11
39.288215
21
25.272886
0
LINE
8
Layer 1
10
39.288215
20
25.272886
11
41.914668
21
25.330385
0
LINE
8
Layer 1
10
41.914668
20
25.330385
11
44.530486
21
25.776622
0
LINE
8
Layer 1
10
44.530486
20
25.776622
11
47.093361
21
26.620012
0
LINE
8
Layer 1
10
47.093361
20
26.620012
11
49.501954
21
27.835872
0
LINE
8
Layer 1
10
49.501954
20
27.835872
11
51.667154
21
29.369997
0
LINE
8
Layer 1
10
51.667154
20
29.369997
11
53.564994
21
31.186521
0
LINE
8
Layer 1
10
53.564994
20
31.186521
11
55.171512
21
33.249580
0
LINE
8
Layer 1
10
55.171512
20
33.249580
11
56.462742
21
35.523307
0
LINE
8
Layer 1
10
56.462742
20
35.523307
11
57.414719
21
37.971837
0
LINE
8
Layer 1
10
57.414719
20
37.971837
11
58.003480
21
40.559305
0
LINE
8
Layer 1
10
58.003480
20
40.559305
11
58.205059
21
43.249844
0
LINE
8
Layer 1
10
58.205059
20
43.249844
11
58.116979
21
45.028923
0
LINE
8
Layer 1
10
58.116979
20
45.028923
11
57.855998
21
46.777868
0
LINE
8
Layer 1
10
57.855998
20
46.777868
11
57.427006
21
48.484877
0
LINE
8
Layer 1
10
57.427006
20
48.484877
11
56.834891
21
50.138146
0
LINE
8
Layer 1
10
56.834891
20
50.138146
11
56.084542
21
51.725872
0
LINE
8
Layer 1
10
56.084542
20
51.725872
11
55.180848
21
53.236253
0
LINE
8
Layer 1
10
55.180848
20
53.236253
11
54.128698
21
54.657485
0
LINE
8
Layer 1
10
54.128698
20
54.657485
11
52.932981
21
55.977766
0
LINE
8
Layer 1
10
52.932981
20
55.977766
11
51.612700
21
57.173483
0
LINE
8
Layer 1
10
51.612700
20
57.173483
11
50.191468
21
58.225633
0
LINE
8
Layer 1
10
50.191468
20
58.225633
11
48.681087
21
59.129327
0
LINE
8
Layer 1
10
48.681087
20
59.129327
11
47.093361
21
59.879676
0
LINE
8
Layer 1
10
47.093361
20
59.879676
11
45.440092
21
60.471791
0
LINE
8
Layer 1
10
45.440092
20
60.471791
11
43.733083
21
60.900783
0
LINE
8
Layer 1
10
43.733083
20
60.900783
11
41.984138
21
61.161764
0
LINE
8
Layer 1
10
41.984138
20
61.161764
11
40.205059
21
61.249844
0
LINE
8
Layer 1
10
40.205059
20
61.249844
11
40.205059
21
61.249844
0
LINE
8
Layer 1
10
210.231060
20
61.249844
11
207.540521
21
61.048265
0
LINE
8
Layer 1
10
207.540521
20
61.048265
11
204.953053
21
60.459504
0
LINE
8
Layer 1
10
204.953053
20
60.459504
11
202.504523
21
59.507527
0
LINE
8
Layer 1
10
202.504523
20
59.507527
11
200.230796
21
58.216297
0
LINE
8
Layer 1
10
200.230796
20
58.216297
11
198.167737
21
56.609779
0
LINE
8
Layer 1
10
198.167737
20
56.609779
11
196.351213
21
54.711939
0
LINE
8
Layer 1
10
196.351213
20
54.711939
11
194.817088
21
52.546739
0
LINE
8
Layer 1
10
194.817088
20
52.546739
11
193.601228
21
50.138146
0
LINE
8
Layer 1
10
193.601228
20
50.138146
11
192.757838
21
47.575271
0
LINE
8
Layer 1
10
192.757838
20
47.575271
11
192.311601
21
44.959453
0
LINE
8
Layer 1
10
192.311601
20
44.959453
11
192.254102
21
42.333000
0
LINE
8
Layer 1
10
192.254102
20
42.333000
11
192.576925
21
39.738218
0
LINE
8
Layer 1
10
192.576925
20
39.738218
11
193.271655
21
37.217413
0
LINE
8
Layer 1
10
193.271655
20
37.217413
11
194.329878
21
34.812891
0
LINE
8
Layer 1
10
194.329878
20
34.812891
11
195.743177
21
32.566958
0
LINE
8
Layer 1
10
195.743177
20
32.566958
11
197.503138
21
30.521922
0
LINE
8
Layer 1
10
197.503138
20
30.521922
11
199.548174
21
28.761961
0
LINE
8
Layer 1
10
199.548174
20
28.761961
11
201.794107
21
27.348662
0
LINE
8
Layer 1
10
201.794107
20
27.348662
11
204.198629
21
26.290439
0
LINE
8
Layer 1
10
204.198629
20
26.290439
11
206.719434
21
25.595709
0
LINE
8
Layer 1
10
206.719434
20
25.595709
11
209.314216
21
25.272886
0
LINE
8
Layer 1
10
209.314216
20
25.272886
11
211.940669
21
25.330385
0
LINE
8
Layer 1
10
211.940669
20
25.330385
11
214.556487
21
25.776622
0
LINE
8
Layer 1
10
214.556487
20
25.776622
11
217.119362
21
26.620012
0
LINE
8
Layer 1
10
217.119362
20
26.620012
11
219.527955
21
27.835872
0
LINE
8
Layer 1
10
219.527955
20
27.835872
11
221.693155
21
29.369997
0
LINE
8
Layer 1
10
221.693155
20
29.369997
11
223.590995
21
31.186521
0
LINE
8
Layer 1
10
223.590995
20
31.186521
11
225.197513
21
33.249580
0
LINE
8
Layer 1
10
225.197513
20
33.249580
11
226.488743
21
35.523307
0
LINE
8
Layer 1
10
226.488743
20
35.523307
11
227.440720
21
37.971837
0
LINE
8
Layer 1
10
227.440720
20
37.971837
11
228.029481
21
40.559305
0
LINE
8
Layer 1
10
228.029481
20
40.559305
11
228.231060
21
43.249844
0
LINE
8
Layer 1
10
228.231060
20
43.249844
11
228.138128
21
45.090239
0
LINE
8
Layer 1
10
228.138128
20
45.090239
11
227.865364
21
46.877472
0
LINE
8
Layer 1
10
227.865364
20
46.877472
11
227.421816
21
48.602493
0
LINE
8
Layer 1
10
227.421816
20
48.602493
11
226.816531
21
50.256256
0
LINE
8
Layer 1
10
226.816531
20
50.256256
11
226.058557
21
51.829713
0
LINE
8
Layer 1
10
226.058557
20
51.829713
11
225.156943
21
53.313815
0
LINE
8
Layer 1
10
225.156943
20
53.313815
11
224.120735
21
54.699516
0
LINE
8
Layer 1
10
224.120735
20
54.699516
11
222.958982
21
55.977766
0
LINE
8
Layer 1
10
222.958982
20
55.977766
11
221.680732
21
57.139519
0
LINE
8
Layer 1
10
221.680732
20
57.139519
11
220.295031
21
58.175727
0
LINE
8
Layer 1
10
220.295031
20
58.175727
11
218.810929
21
59.077341
0
LINE
8
Layer 1
10
218.810929
20
59.077341
11
217.237472
21
59.835315
0
LINE
8
Layer 1
10
217.237472
20
59.835315
11
215.583709
21
60.440600
0
LINE
8
Layer 1
10
215.583709
20
60.440600
11
213.858688
21
60.884148
0
LINE
8
Layer 1
10
213.858688
20
60.884148
11
212.071455
21
61.156912
0
LINE
8
Layer 1
10
212.071455
20
61.156912
11
210.231060
21
61.249844
0
LINE
8
Layer 1
10
210.231060
20
61.249844
11
210.231060
21
61.249844
0
LINE
8
Layer 1
10
166.668420
20
66.844189
11
165.835065
21
66.591393
0
LINE
8
Layer 1
10
165.835065
20
66.591393
11
165.282601
21
65.918214
0
LINE
8
Layer 1
10
165.282601
20
65.918214
11
165.197242
21
65.051554
0
LINE
8
Layer 1
10
165.197242
20
65.051554
11
165.607760
21
64.283529
0
LINE
8
Layer 1
10
165.607760
20
64.283529
11
166.375785
21
63.873011
0
LINE
8
Layer 1
10
166.375785
20
63.873011
11
167.242445
21
63.958370
0
LINE
8
Layer 1
10
167.242445
20
63.958370
11
167.915624
21
64.510834
0
LINE
8
Layer 1
10
167.915624
20
64.510834
11
168.168420
21
65.344189
0
LINE
8
Layer 1
10
168.168420
20
65.344189
11
168.054239
21
65.918214
0
LINE
8
Layer 1
10
168.054239
20
65.918214
11
167.729080
21
66.404849
0
LINE
8
Layer 1
10
167.729080
20
66.404849
11
167.242445
21
66.730008
0
LINE
8
Layer 1
10
167.242445
20
66.730008
11
166.668420
21
66.844189
0
LINE
8
Layer 1
10
166.668420
20
66.844189
11
166.668420
21
66.844189
0
LINE
8
Layer 1
10
166.668420
20
22.644185
11
165.835065
21
22.391389
0
LINE
8
Layer 1
10
165.835065
20
22.391389
11
165.282601
21
21.718210
0
LINE
8
Layer 1
10
165.282601
20
21.718210
11
165.197242
21
20.851550
0
LINE
8
Layer 1
10
165.197242
20
20.851550
11
165.607760
21
20.083525
0
LINE
8
Layer 1
10
165.607760
20
20.083525
11
166.375785
21
19.673007
0
LINE
8
Layer 1
10
166.375785
20
19.673007
11
167.242445
21
19.758366
0
LINE
8
Layer 1
10
167.242445
20
19.758366
11
167.915624
21
20.310830
0
LINE
8
Layer 1
10
167.915624
20
20.310830
11
168.168420
21
21.144185
0
LINE
8
Layer 1
10
168.168420
20
21.144185
11
168.054239
21
21.718210
0
LINE
8
Layer 1
10
168.054239
20
21.718210
11
167.729080
21
22.204845
0
LINE
8
Layer 1
10
167.729080
20
22.204845
11
167.242445
21
22.530004
0
LINE
8
Layer 1
10
167.242445
20
22.530004
11
166.668420
21
22.644185
0
LINE
8
Layer 1
10
166.668420
20
22.644185
11
166.668420
21
22.644185
0
LINE
8
Layer 1
10
90.768246
20
66.844205
11
89.934891
21
66.591409
0
LINE
8
Layer 1
10
89.934891
20
66.591409
11
89.382427
21
65.918230
0
LINE
8
Layer 1
10
89.382427
20
65.918230
11
89.297068
21
65.051570
0
LINE
8
Layer 1
10
89.297068
20
65.051570
11
89.707586
21
64.283545
0
LINE
8
Layer 1
10
89.707586
20
64.283545
11
90.475611
21
63.873027
0
LINE
8
Layer 1
10
90.475611
20
63.873027
11
91.342271
21
63.958386
0
LINE
8
Layer 1
10
91.342271
20
63.958386
11
92.015450
21
64.510850
0
LINE
8
Layer 1
10
92.015450
20
64.510850
11
92.268246
21
65.344205
0
LINE
8
Layer 1
10
92.268246
20
65.344205
11
92.154065
21
65.918230
0
LINE
8
Layer 1
10
92.154065
20
65.918230
11
91.828906
21
66.404865
0
LINE
8
Layer 1
10
91.828906
20
66.404865
11
91.342271
21
66.730024
0
LINE
8
Layer 1
10
91.342271
20
66.730024
11
90.768246
21
66.844205
0
LINE
8
Layer 1
10
90.768246
20
66.844205
11
90.768246
21
66.844205
0
LINE
8
Layer 1
10
40.340733
20
67.666005
11
39.507378
21
67.413209
0
LINE
8
Layer 1
10
39.507378
20
67.413209
11
38.954914
21
66.740030
0
LINE
8
Layer 1
10
38.954914
20
66.740030
11
38.869555
21
65.873370
0
LINE
8
Layer 1
10
38.869555
20
65.873370
11
39.280073
21
65.105345
0
LINE
8
Layer 1
10
39.280073
20
65.105345
11
40.048098
21
64.694827
0
LINE
8
Layer 1
10
40.048098
20
64.694827
11
40.914758
21
64.780186
0
LINE
8
Layer 1
10
40.914758
20
64.780186
11
41.587937
21
65.332650
0
LINE
8
Layer 1
10
41.587937
20
65.332650
11
41.840733
21
66.166005
0
LINE
8
Layer 1
10
41.840733
20
66.166005
11
41.726552
21
66.740030
0
LINE
8
Layer 1
10
41.726552
20
66.740030
11
41.401393
21
67.226665
0
LINE
8
Layer 1
10
41.401393
20
67.226665
11
40.914758
21
67.551824
0
LINE
8
Layer 1
10
40.914758
20
67.551824
11
40.340733
21
67.666005
0
LINE
8
Layer 1
10
40.340733
20
67.666005
11
40.340733
21
67.666005
0
LINE
8
Layer 1
10
59.254719
20
31.567380
11
58.421364
21
31.314584
0
LINE
8
Layer 1
10
58.421364
20
31.314584
11
57.868900
21
30.641405
0
LINE
8
Layer 1
10
57.868900
20
30.641405
11
57.783541
21
29.774745
0
LINE
8
Layer 1
10
57.783541
20
29.774745
11
58.194059
21
29.006720
0
LINE
8
Layer 1
10
58.194059
20
29.006720
11
58.962084
21
28.596202
0
LINE
8
Layer 1
10
58.962084
20
28.596202
11
59.828744
21
28.681561
0
LINE
8
Layer 1
10
59.828744
20
28.681561
11
60.501923
21
29.234025
0
LINE
8
Layer 1
10
60.501923
20
29.234025
11
60.754719
21
30.067380
0
LINE
8
Layer 1
10
60.754719
20
30.067380
11
60.640538
21
30.641405
0
LINE
8
Layer 1
10
60.640538
20
30.641405
11
60.315379
21
31.128040
0
LINE
8
Layer 1
10
60.315379
20
31.128040
11
59.828744
21
31.453199
0
LINE
8
Layer 1
10
59.828744
20
31.453199
11
59.254719
21
31.567380
0
LINE
8
Layer 1
10
59.254719
20
31.567380
11
59.254719
21
31.567380
0
LINE
8
Layer 1
10
21.458050
20
31.501233
11
20.624695
21
31.248437
0
LINE
8
Layer 1
10
20.624695
20
31.248437
11
20.072231
21
30.575258
0
LINE
8
Layer 1
10
20.072231
20
30.575258
11
19.986872
21
29.708598
0
LINE
8
Layer 1
10
19.986872
20
29.708598
11
20.397390
21
28.940573
0
LINE
8
Layer 1
10
20.397390
20
28.940573
11
21.165415
21
28.530055
0
LINE
8
Layer 1
10
21.165415
20
28.530055
11
22.032075
21
28.615414
0
LINE
8
Layer 1
10
22.032075
20
28.615414
11
22.705254
21
29.167878
0
LINE
8
Layer 1
10
22.705254
20
29.167878
11
22.958050
21
30.001233
0
LINE
8
Layer 1
10
22.958050
20
30.001233
11
22.843869
21
30.575258
0
LINE
8
Layer 1
10
22.843869
20
30.575258
11
22.518710
21
31.061893
0
LINE
8
Layer 1
10
22.518710
20
31.061893
11
22.032075
21
31.387052
0
LINE
8
Layer 1
10
22.032075
20
31.387052
11
21.458050
21
31.501233
0
LINE
8
Layer 1
10
21.458050
20
31.501233
11
21.458050
21
31.501233
0
LINE
8
Layer 1
10
210.366740
20
67.666005
11
209.533385
21
67.413209
0
LINE
8
Layer 1
10
209.533385
20
67.413209
11
208.980921
21
66.740030
0
LINE
8
Layer 1
10
208.980921
20
66.740030
11
208.895562
21
65.873370
0
LINE
8
Layer 1
10
208.895562
20
65.873370
11
209.306080
21
65.105345
0
LINE
8
Layer 1
10
209.306080
20
65.105345
11
210.074105
21
64.694827
0
LINE
8
Layer 1
10
210.074105
20
64.694827
11
210.940765
21
64.780186
0
LINE
8
Layer 1
10
210.940765
20
64.780186
11
211.613944
21
65.332650
0
LINE
8
Layer 1
10
211.613944
20
65.332650
11
211.866740
21
66.166005
0
LINE
8
Layer 1
10
211.866740
20
66.166005
11
211.752559
21
66.740030
0
LINE
8
Layer 1
10
211.752559
20
66.740030
11
211.427400
21
67.226665
0
LINE
8
Layer 1
10
211.427400
20
67.226665
11
210.940765
21
67.551824
0
LINE
8
Layer 1
10
210.940765
20
67.551824
11
210.366740
21
67.666005
0
LINE
8
Layer 1
10
210.366740
20
67.666005
11
210.366740
21
67.666005
0
LINE
8
Layer 1
10
229.280730
20
31.567380
11
228.447375
21
31.314584
0
LINE
8
Layer 1
10
228.447375
20
31.314584
11
227.894911
21
30.641405
0
LINE
8
Layer 1
10
227.894911
20
30.641405
11
227.809552
21
29.774745
0
LINE
8
Layer 1
10
227.809552
20
29.774745
11
228.220070
21
29.006720
0
LINE
8
Layer 1
10
228.220070
20
29.006720
11
228.988095
21
28.596202
0
LINE
8
Layer 1
10
228.988095
20
28.596202
11
229.854755
21
28.681561
0
LINE
8
Layer 1
10
229.854755
20
28.681561
11
230.527934
21
29.234025
0
LINE
8
Layer 1
10
230.527934
20
29.234025
11
230.780730
21
30.067380
0
LINE
8
Layer 1
10
230.780730
20
30.067380
11
230.666549
21
30.641405
0
LINE
8
Layer 1
10
230.666549
20
30.641405
11
230.341390
21
31.128040
0
LINE
8
Layer 1
10
230.341390
20
31.128040
11
229.854755
21
31.453199
0
LINE
8
Layer 1
10
229.854755
20
31.453199
11
229.280730
21
31.567380
0
LINE
8
Layer 1
10
229.280730
20
31.567380
11
229.280730
21
31.567380
0
LINE
8
Layer 1
10
191.484050
20
31.501233
11
190.650695
21
31.248437
0
LINE
8
Layer 1
10
190.650695
20
31.248437
11
190.098231
21
30.575258
0
LINE
8
Layer 1
10
190.098231
20
30.575258
11
190.012872
21
29.708598
0
LINE
8
Layer 1
10
190.012872
20
29.708598
11
190.423390
21
28.940573
0
LINE
8
Layer 1
10
190.423390
20
28.940573
11
191.191415
21
28.530055
0
LINE
8
Layer 1
10
191.191415
20
28.530055
11
192.058075
21
28.615414
0
LINE
8
Layer 1
10
192.058075
20
28.615414
11
192.731254
21
29.167878
0
LINE
8
Layer 1
10
192.731254
20
29.167878
11
192.984050
21
30.001233
0
LINE
8
Layer 1
10
192.984050
20
30.001233
11
192.869869
21
30.575258
0
LINE
8
Layer 1
10
192.869869
20
30.575258
11
192.544710
21
31.061893
0
LINE
8
Layer 1
10
192.544710
20
31.061893
11
192.058075
21
31.387052
0
LINE
8
Layer 1
10
192.058075
20
31.387052
11
191.484050
21
31.501233
0
LINE
8
Layer 1
10
191.484050
20
31.501233
11
191.484050
21
31.501233
0
LINE
8
Layer 1
10
73.962139
20
46.749844
11
72.935860
21
46.596167
0
LINE
8
Layer 1
10
72.935860
20
46.596167
11
72.017643
21
46.159988
0
LINE
8
Layer 1
10
72.017643
20
46.159988
11
71.263280
21
45.478585
0
LINE
8
Layer 1
10
71.263280
20
45.478585
11
70.728561
21
44.589236
0
LINE
8
Layer 1
10
70.728561
20
44.589236
11
70.477800
21
43.582268
0
LINE
8
Layer 1
10
70.477800
20
43.582268
11
70.529391
21
42.567028
0
LINE
8
Layer 1
10
70.529391
20
42.567028
11
70.870242
21
41.609325
0
LINE
8
Layer 1
10
70.870242
20
41.609325
11
71.487265
21
40.774970
0
LINE
8
Layer 1
10
71.487265
20
40.774970
11
72.321620
21
40.157947
0
LINE
8
Layer 1
10
72.321620
20
40.157947
11
73.279323
21
39.817096
0
LINE
8
Layer 1
10
73.279323
20
39.817096
11
74.294563
21
39.765505
0
LINE
8
Layer 1
10
74.294563
20
39.765505
11
75.301531
21
40.016266
0
LINE
8
Layer 1
10
75.301531
20
40.016266
11
76.190880
21
40.550985
0
LINE
8
Layer 1
10
76.190880
20
40.550985
11
76.872283
21
41.305348
0
LINE
8
Layer 1
10
76.872283
20
41.305348
11
77.308462
21
42.223565
0
LINE
8
Layer 1
10
77.308462
20
42.223565
11
77.462139
21
43.249844
0
LINE
8
Layer 1
10
77.462139
20
43.249844
11
77.195717
21
44.589236
0
LINE
8
Layer 1
10
77.195717
20
44.589236
11
76.437013
21
45.724718
0
LINE
8
Layer 1
10
76.437013
20
45.724718
11
75.301531
21
46.483422
0
LINE
8
Layer 1
10
75.301531
20
46.483422
11
73.962139
21
46.749844
0
LINE
8
Layer 1
10
73.962139
20
46.749844
11
73.962139
21
46.749844
0
LINE
8
Layer 1
10
176.635680
20
46.749844
11
175.609401
21
46.596167
0
LINE
8
Layer 1
10
175.609401
20
46.596167
11
174.691184
21
46.159988
0
LINE
8
Layer 1
10
174.691184
20
46.159988
11
173.936821
21
45.478585
0
LINE
8
Layer 1
10
173.936821
20
45.478585
11
173.402102
21
44.589236
0
LINE
8
Layer 1
10
173.402102
20
44.589236
11
173.151341
21
43.582268
0
LINE
8
Layer 1
10
173.151341
20
43.582268
11
173.202932
21
42.567028
0
LINE
8
Layer 1
10
173.202932
20
42.567028
11
173.543783
21
41.609325
0
LINE
8
Layer 1
10
173.543783
20
41.609325
11
174.160806
21
40.774970
0
LINE
8
Layer 1
10
174.160806
20
40.774970
11
174.995161
21
40.157947
0
LINE
8
Layer 1
10
174.995161
20
40.157947
11
175.952864
21
39.817096
0
LINE
8
Layer 1
10
175.952864
20
39.817096
11
176.968104
21
39.765505
0
LINE
8
Layer 1
10
176.968104
20
39.765505
11
177.975072
21
40.016266
0
LINE
8
Layer 1
10
177.975072
20
40.016266
11
178.864421
21
40.550985
0
LINE
8
Layer 1
10
178.864421
20
40.550985
11
179.545824
21
41.305348
0
LINE
8
Layer 1
10
179.545824
20
41.305348
11
179.982003
21
42.223565
0
LINE
8
Layer 1
10
179.982003
20
42.223565
11
180.135680
21
43.249844
0
LINE
8
Layer 1
10
180.135680
20
43.249844
11
179.869258
21
44.589236
0
LINE
8
Layer 1
10
179.869258
20
44.589236
11
179.110554
21
45.724718
0
LINE
8
Layer 1
10
179.110554
20
45.724718
11
177.975072
21
46.483422
0
LINE
8
Layer 1
10
177.975072
20
46.483422
11
176.635680
21
46.749844
0
LINE
8
Layer 1
10
176.635680
20
46.749844
11
176.635680
21
46.749844
0
LINE
8
Layer 1
10
90.768246
20
22.644185
11
89.934891
21
22.391389
0
LINE
8
Layer 1
10
89.934891
20
22.391389
11
89.382427
21
21.718210
0
LINE
8
Layer 1
10
89.382427
20
21.718210
11
89.297068
21
20.851550
0
LINE
8
Layer 1
10
89.297068
20
20.851550
11
89.707586
21
20.083525
0
LINE
8
Layer 1
10
89.707586
20
20.083525
11
90.475611
21
19.673007
0
LINE
8
Layer 1
10
90.475611
20
19.673007
11
91.342271
21
19.758366
0
LINE
8
Layer 1
10
91.342271
20
19.758366
11
92.015450
21
20.310830
0
LINE
8
Layer 1
10
92.015450
20
20.310830
11
92.268246
21
21.144185
0
LINE
8
Layer 1
10
92.268246
20
21.144185
11
92.154065
21
21.718210
0
LINE
8
Layer 1
10
92.154065
20
21.718210
11
91.828906
21
22.204845
0
LINE
8
Layer 1
10
91.828906
20
22.204845
11
91.342271
21
22.530004
0
LINE
8
Layer 1
10
91.342271
20
22.530004
11
90.768246
21
22.644185
0
LINE
8
Layer 1
10
90.768246
20
22.644185
11
90.768246
21
22.644185
 0 
ENDSEC
 0 
EOF